<svg xmlns="http://www.w3.org/2000/svg" version="1.0" x="0px" y="0px" viewBox="0 0 100 125"
     enable-background="new 0 0 100 100" xml:space="preserve"><polygon points="10.1960659,32.7217407 12.6577654,32.5710602 12.7137308,32.5674477 17.8089905,32.2623367 18.2824211,32.7674332   19.0186768,34.1630745 19.870863,34.6574097 20.9017792,34.675045 21.3120213,34.6820602 21.9327335,35.0327225   22.3921032,34.9590836 24.2716293,34.6503944 25.691925,33.9350052 25.4289265,32.8936348 25.7234154,32.5850868   22.851511,28.7241955 21.7890663,26.6693439 21.5680065,24.7370777 21.0737095,23.629118 24.9590721,21.6302547   26.3686028,20.6869678 26.5755997,20.6167717 27.16819,20.4133854 27.5750275,20.2731552 28.7146873,20.2346096   29.4369144,19.0879383 29.9139233,19.1685905 30.1628952,19.2141132 34.8232269,18.5759678 35.0090065,19.6524448   34.8442993,21.4514923 35.387764,24.123415 36.2084198,25.8907986 36.5871735,25.8067093 37.9685783,25.0877419   38.9890862,25.3226871 41.7663116,25.9714508 43.6004601,26.399332 43.9052238,26.4693604 44.5435371,26.2274017   47.1526566,25.8837852 48.4042816,24.5021667 48.6850929,23.7482681 49.5299149,22.8260612 49.6175804,21.9634628   50.8942108,20.1329174 50.9048347,19.2351875 51.3640327,18.6215267 52.2057648,17.9727612 52.7177353,17.5765457   53.5522804,16.2054138 55.3545532,15.6057768 55.6983795,16.1423988 58.2475357,16.8226452 58.9803886,18.3480778   59.5625267,18.6215267 59.7203979,18.8881359 59.1276321,20.0241833 59.2084618,21.5145073 58.3283653,21.9142933   58.1352196,23.1871758 58.8577957,24.712595 58.8786621,24.7511387 58.9207764,24.8423824 58.9242134,24.8423824   59.2574158,25.0492325 59.3522682,26.399332 55.5264854,25.1018028 54.4885178,25.294775 54.709404,27.2864418   54.7128029,27.2864418 55.7158432,27.798378 57.1499939,28.0228653 61.2000961,27.6932411 62.5223083,27.8720169   64.5420303,27.4934406 65.1765976,27.7036972 65.4293213,27.7913647 67.4137955,30.0532131 67.4137955,30.0566559   67.799736,30.0461998 68.441452,29.4255238 73.7785034,24.2568073 74.9636688,23.1101341 75.2160797,22.2964878   75.5352173,21.9107227 75.0479355,20.0907745 76.4680557,18.5759678 76.9731522,18.0429573 77.4638748,17.9763737   77.4885254,18.1868076 77.6744843,19.7507343 77.6779175,19.7541714 78.0145264,20.0978222 78.2949829,20.3784599   78.2984161,20.3818607 80.5496521,20.3784599 81.2054291,22.4648075 81.9067535,26.223999 80.262352,30.582653   81.8892899,32.2237968 81.8927307,32.2274094 82.348877,32.6902084 84.7576218,35.9724007 85.687027,39.1319542   85.5048523,40.5942268 85.5048523,40.5976257 86.5530624,40.8431549 87.8646469,40.8116722 91.3503952,39.9699364   92.0270767,40.4259071 92.5181427,40.7554893 94.3553391,42.1126022 92.8756409,46.6957436 92.8266907,46.8465729   93.7276535,47.9020004 93.9803772,48.0036926 93.9944382,48.0107346 92.8020401,50.2479095 92.4232864,51.5069351   92.3075333,54.0211639 92.5879898,54.9469528 93.0369492,55.5780754 94.7553482,56.3915863 95.1796112,56.7983856   95.439209,57.3559113 95.8843842,58.6149025 96.3333359,62.016243 96.3192749,62.9105415 93.8365707,65.2003021   93.4612198,65.091568 92.213028,64.2744827 91.5781174,64.2744827 91.6236649,65.6071167 89.7162628,66.830864   89.032402,67.0517502 86.9633331,66.9781113 86.4900818,67.2376633 85.0312424,67.2376633 84.866539,67.3113022   84.7018356,68.0160751 84.4668884,68.496521 83.6426163,69.2365265 82.6995392,69.7555084 82.2995682,70.1236343   81.640358,71.6035156 81.1249847,71.9014359 79.5223083,72.0873947 77.9234543,72.7151184 76.5557251,73.0868225   74.9075317,73.1217499 74.6726227,73.3462372 74.5078812,74.6401596 74.2729645,75.0855026 73.7082901,75.5659409   73.518898,75.9340744 72.9298935,77.638443 72.6949768,77.8593292 72.3409119,78.0100098 71.4957428,77.8593292   71.1871948,77.5648041 70.7872238,77.5648041 69.163681,78.5640564 66.9754639,78.4904556 66.291954,78.8236542   65.1837845,79.9352188 64.9033203,80.0824738 64.2684097,80.2648163 63.3708839,80.3033524 63.0904198,80.117569   62.6414642,80.0824738 61.7473412,80.9310455 60.972374,81.0818939 60.7583618,81.3027802 59.8186874,81.4500275   58.594799,81.4151001 57.935585,81.0818939 57.3674736,79.7843704 56.4520988,78.6377029 56.0312309,78.5606613   55.6737289,78.4904556 55.4388199,78.6377029 55.2282104,78.6377029 54.5655594,78.9323654 53.5556831,79.5249863   53.5556831,79.6020279 52.6369057,79.8966904 51.6236267,79.7494431 51.2729607,79.823082 50.7538033,80.4893112   50.1894455,80.7837982 49.6703224,81.2291412 48.6357918,83.0420761 48.2361374,83.0035324 48.2114868,82.228569   48.32724,81.8953705 48.7515106,81.4151001 48.7515106,81.043396 47.5769234,80.7101898 47.2228584,80.117569   46.7283516,80.0439682 45.385273,80.562912 43.1970596,80.7837982 42.5624924,81.6008759 41.68927,81.6008759   41.0999069,81.4151001 40.6547432,81.6359863 40.4900322,82.3758469 39.9955254,83.4874191 39.1014023,83.8942261   38.5120392,83.8942261 38.038784,83.3401718 37.639164,83.5997391 37.2638512,83.522522 36.7693443,82.6703415   35.5456276,82.4143524 33.8659134,83.5750885 33.3784561,83.4488754 32.0143318,82.228569 31.0710468,81.6359863   30.6712532,81.5623474 30.506546,83.1156845 30.222477,83.6697693 29.4230289,83.7083054 28.6936111,83.4874191   28.1044636,83.2280045 27.7046337,82.747551 26.6000748,82.3758469 26.0319633,82.6003113 25.3272018,83.2280045   24.7626991,83.3752823 24.1279621,82.8563004 23.7737198,82.8563004 23.3740692,83.2665329 22.8550854,83.3016434   22.2203827,82.0813293 21.5609932,81.4500275 20.971983,81.0818939 20.9264317,80.3769913 21.1824169,79.6020279   21.2068939,78.7851181 20.8317509,78.1923523 20.4775124,78.1574326 20.3583202,78.5255508 20.5477142,79.1181412   20.3372803,79.4513474 19.6534138,80.0439682 19.5833874,80.2648163 19.2291107,80.5244141 18.5454197,80.4156723   18.3349857,80.2297134 18.6400986,79.672226 18.6890869,79.4162369 18.5943737,79.3041 16.6867943,79.083046 16.3116531,78.8972549   15.4383936,78.0451126 14.6634598,77.4910278 13.4852648,77.3437805 12.71033,76.9335022 12.3071003,76.8598938   12.072156,77.3052368 11.5530319,77.8978348 11.0831766,78.083786 9.8383884,78.1363525 9.5788269,77.7856903 9.2000742,77.5648041   8.9651642,77.5648041 8.165719,78.083786 7.4573774,78.7500153 6.847116,78.5991592 6.0231953,77.8593292 5.2902012,77.4524918   5.3148532,76.898407 5.1990986,75.899147 5.3393312,75.3800278 5.9285159,74.7173767 5.7391567,74.3071365 5.3884926,74.0124741   5.1990986,73.6407318 5.1744471,72.0137863 5.0588679,71.5684128 3.97521,70.7547607 3.7158234,70.4217377 3.6666622,69.9027557   3.8560541,69.4574127 4.1224537,69.1067429 4.5397444,68.9384308 5.2446518,68.4228821 6.2581401,66.9044724 6.9628706,66.3469772   7.4573774,66.311882 8.9406872,66.830864 10.1188498,66.9044724 12.8960762,66.2382431 14.6144724,66.3469772 15.1334553,66.311882   16.0275822,66.0558929 16.7359238,65.5335083 17.2268162,64.7585449 17.5810928,63.0928879 17.486414,61.5357971   17.5564404,59.3162308 17.486414,58.8357887 17.4898148,58.0431786 16.3116531,57.5031586 16.0977821,57.0578117   16.4518852,56.6511459 16.3116531,55.5780754 16.0977821,55.2799797 15.6277876,55.3185196 15.2281351,55.5395775   14.8983698,55.4659386 14.6844997,55.024025 14.6844997,54.6873856 15.0632544,53.8739204 14.6634598,52.4676514   14.025321,50.654747 14.0497971,49.4308624 13.7446842,48.4350128 13.8148899,47.989666 14.0497971,47.7687759   14.6530104,47.7862473 14.8494177,47.9511223 15.2736864,47.9511223 15.5085983,46.804451 15.9329023,45.9522705   16.2414494,45.6192474 16.7114449,44.8443146 16.8061256,44.2130127 16.3572063,43.4731407 16.0031033,43.1786575   15.1334553,42.7718086 13.9340429,42.0283737 13.5799446,41.7723885 13.3203802,41.4006844 13.0154428,40.5871696   12.9907913,38.4025726 12.8960762,37.4031372 12.755846,36.9577675 12.49646,36.6247406 11.5391455,35.8076935   11.0727272,36.0566292 9.7577353,36.403717 9.2877398,35.9302826 10.0137205,35.0080719 9.9190416,34.4856529 8.4287176,33.2723885   8.5655117,32.8164215 10.1118364,32.7253189 10.1294746,32.7253189 10.1924896,32.7217407 "/>
    </svg>
