<svg enable-background="new 0 0 100 100" version="1.0" viewBox="0 0 100 125" x="0px"
     xml:space="preserve" xmlns="http://www.w3.org/2000/svg" y="0px">
    <polygon
            points="7.0640526,27.3446865 5.8671031,27.7940884 5.6346316,27.670208 5.580359,27.2595387 6.4132032,26.6048927   6.8548636,26.4847641 7.4011574,26.0353489 7.5831132,25.6672611 7.5598311,24.4820099 6.9091363,22.4364872 7.0640526,21.8631859   8.4431906,21.2085018 9.0668459,20.7978706 9.1444006,20.5538616 9.1984806,20.0656376 8.8072968,18.0590878 7.4281969,13.3213768   7.5482869,13.4685001 9.5085068,15.4209785 11.1123295,17.0208435 11.7204885,17.4237251 12.3325605,18.9112225 12.8013,19.0663338   13.738739,19.3761578 13.8162937,19.3839512 14.8738613,19.5000916 15.9236813,19.4304771 17.7792683,19.3026009   18.5578384,19.2483215 20.3010826,18.8648911 21.4517002,18.6129341 20.5955734,12.3954363 20.6806831,12.1862478   20.7310047,12.0623684 20.8395901,12.0390863 21.0603237,11.9965124 22.7454967,12.8564281 23.6481495,12.4069881   24.7017269,11.8259068 25.0620747,11.8879595 26.061573,12.585186 26.4954853,12.8874187 26.7665405,12.6704817   26.6969261,11.1557264 26.9292049,10.6134224 27.3671074,10.4004374 27.3826027,10.3926897 27.4211864,10.408185   28.378149,10.826602 31.1131058,12.8061132 31.849102,13.1779594 32.9066696,13.2322779 33.5187798,13.7861261 36.6138916,14.1039   38.686451,15.1032047 38.7407646,15.1109524 40.1081238,15.3434238 41.289772,15.2660618 42.5991058,15.3937454   42.7580109,15.4054375 43.7845459,16.5753937 44.7412796,16.2305412 45.8764038,16.8929729 46.163147,17.6639519   45.8686562,18.4890423 45.6556664,20.6739521 45.8686562,23.1687279 46.6086006,23.6529617 46.6627197,23.69174   47.0270195,23.9279613 47.4607391,23.970541 50.939476,24.3191509 52.7214966,24.0170612 53.3298111,23.1569901   54.1238823,22.0375938 54.7127113,21.9600334 55.2435074,22.448225 55.0342789,23.5173302 54.4764786,24.253334   54.6779213,24.7763405 55.7082558,24.935215 57.3082809,24.6407223 58.2650528,23.0020733 58.8964157,22.7541065   59.8068161,23.6489716 60.6551933,23.7691002 62.7742805,22.8974781 64.2773056,21.4447765 65.1101456,20.0618801   68.0853653,19.120451 68.3874054,19.1281986 70.5955963,19.1824646 71.6801987,18.40769 72.8773804,17.551609   73.0360565,17.4392204 76.4915543,15.8238611 83.4336929,9.1219425 87.8381348,3.6752748 88.3573456,4.1982865 89.810051,3.8148506   90.3253174,3.539844 91.3828812,4.4424567 91.6694336,4.8103585 91.8243484,5.3023725 91.9289856,6.4064727 91.9562149,8.81985   92.2930908,9.7185574 92.579834,10.1291885 92.9710159,10.4119816 94.2960358,11.2332745 95.2567596,11.6827278   95.6479416,12.008049 96.1438751,12.8254051 96.0392761,13.5228186 95.5200653,14.3789062 95.1792068,14.7468081   94.7104645,15.6882305 94.4509506,16.9549866 93.982254,16.9549866 93.765274,16.7728443 93.0988922,16.7535458   92.839386,16.9975681 92.7618256,17.4895496 93.0988922,18.5896912 93.0718536,19.9417439 93.7768173,21.9445057   94.218483,23.498045 93.8000641,24.3966999 93.8000641,24.7685928 94.0363312,25.2567844 94.4006271,25.3381367   94.8421326,25.0939274 95.361351,25.0513535 95.5976181,25.3806648 95.7525406,26.5661144 95.361351,27.0153694   95.5976181,27.5073509 96.8991623,28.1039276 96.8954086,28.9795399 96.9727631,29.5102978 96.8954086,31.962307 97,33.6824608   96.6086197,35.5225525 96.0663223,36.3786774 95.2837982,36.9557686 94.2960358,37.2385635 93.722702,37.2773323   91.8243484,37.1572113 88.756279,37.8932076 87.4547348,37.8118973 85.8160858,37.2385635 85.2697906,37.2773323   84.4912567,37.8932076 83.3716354,39.5706329 82.5929031,40.1401711 82.1319122,40.3261185 81.837616,40.7135048   81.6283875,41.2054863 81.6827011,41.77882 81.9692535,42.1467209 83.1663971,43.045578 83.294075,43.5375977 83.321312,45.3349228   83.5305405,45.7455902 83.917923,46.0711136 84.1271133,46.5243149 83.4762268,47.2563629 83.321312,47.8298492   83.4491882,48.9337502 83.4219513,49.5458603 84.2317123,49.9953079 85.1419144,50.8126183 85.8160858,50.9792709   86.5986099,50.2432747 87.4817734,49.6699409 87.7412872,49.6699409 88.1596985,49.9139557 88.4464493,50.3013458   87.6909637,52.858139 87.377182,53.2686157 86.9356766,53.3073921 86.571373,53.512825 86.571373,53.9620399 87.2222672,54.5741501   87.5090103,55.1902122 87.377182,55.5581131 86.675972,56.2127991 85.7657623,56.5808945 83.6854553,57.8050766   83.1894836,57.8476524 81.4734726,57.3982048 80.9775009,57.5221291 80.2260056,58.0103111 79.5984039,60.0751305   79.6799088,61.2838173 80.276329,62.7132759 80.6173859,63.8171768 80.5630722,65.6146927 80.3538895,66.1066742   79.7843475,66.6412277 79.4434814,66.7613602 79.0833282,67.2533417 78.4557266,67.210762 74.7910385,65.5373306   74.5315247,65.6572647 74.2950668,65.9440079 74.2680283,66.4359894 74.5546188,67.5788651 74.6864471,68.849411   74.4501801,69.1322021 73.5397797,69.5428314 73.0981216,69.9922867 73.202713,70.6894989 73.6984863,71.4642792   73.8535995,72.3243561 73.4389801,73.5483856 72.6836929,74.3271103 71.9824829,75.3497009 70.9674911,78.0072937   70.5258255,78.4993134 69.8208237,78.9485321 69.7705383,79.3166199 70.184967,79.6032181 71.6183777,79.8899536   72.0057602,81.1141815 72.1877213,82.7100601 71.7189789,84.4262619 70.9132156,85.9409866 69.6659012,87.0836639   67.5352707,88.1489792 67.0665741,88.5558548 66.6481552,88.5984268 65.9199066,88.2303314 65.2690201,88.0676727   64.2812576,89.0904083 62.9059143,89.3344269 62.7239571,89.1717606 62.5650902,88.2303314 62.3326225,87.9863205   61.863884,87.9437408 61.0853081,88.1877594 60.6396599,88.5170746 60.0160446,89.2918472 59.4969826,90.7252655   59.5743446,91.9920197 59.7565308,92.1547241 60.5622978,92.23983 60.7985687,92.3599243 60.9031601,92.5653534   61.2673073,94.2813644 60.9807167,94.6494598 60.3569069,94.8934708 59.4969826,94.8546982 58.0675621,95.0987091   57.4669952,94.7308121 56.1151276,94.8121185 56.1151276,94.0373459 55.7780266,93.0533829 55.1271744,92.2786026   54.8676262,92.1119537 54.00774,91.9105148 52.578125,91.9920197 52.0320244,92.1972504 50.6296463,93.1386871   49.8471222,93.0959167 49.2505074,92.8519363 48.6268921,92.23983 48.3906212,92.1972504 48.1309166,92.0733719   44.9854889,92.1119537 44.6716652,91.9920197 44.2029648,91.0506287 43.7342262,90.5624084 43.2150116,89.7450562   43.0600967,88.9277496 43.1646881,87.8236465 42.8508644,87.8236465 41.7312775,88.7223129 40.5886002,89.2530746   39.1319084,89.2105408 38.5353317,87.7810822 38.2217026,87.6997681 37.1563873,88.3931885 36.8966827,88.4357681   36.6604156,88.6797409 36.2187538,88.8424454 35.672657,89.3344269 35.2813148,89.9890747 34.1386414,91.1319351   33.3598747,92.7280197 32.5270309,93.7893829 32.3953972,94.161232 32.4999924,95.2653275 32.3721123,95.6334229   31.7445068,95.916214 30.9154606,96.0401001 30.5513153,95.8774338 30.1328983,95.5906982 29.9237099,94.7308121   29.6138763,94.6106796 28.1301441,94.5681076 27.8706341,94.8121185 27.4562054,94.978775 25.8949184,94.8934708   25.2945461,94.6494598 24.6708908,94.2000122 23.1832066,93.7506027 22.9547253,93.4640121 22.8500919,91.6664963   22.59058,90.0704269 22.3581104,89.8264084 21.6298599,89.8264084 20.6148663,90.233284 17.7287521,90.1905136   16.1676579,89.865181 15.3503475,89.9504852 15.3425999,89.9427414 17.1826916,88.4357681 17.7520332,87.6144257   18.7167053,86.5103302 19.0808506,86.2275772 20.4559994,85.6542435 20.4327164,84.507576 20.5102711,83.570137   19.6271057,82.0941544 18.7437458,81.2768478 18.8213005,80.8699722 19.5998726,80.1339722 19.3403606,79.5218658   18.0928955,78.0072937 17.2329731,76.4112167 16.8688679,76.2097702 16.1947365,76.6978073 15.6989584,76.6592255   15.3889322,76.2911224 14.8661137,74.8577194 14.9201927,74.1644516 15.1798973,73.7110519 16.2722912,73.0991364   16.2179794,71.7896118 15.8809137,70.3601913 15.5943632,70.154953 15.2029858,69.8294296 13.9827538,69.1747437   13.5410938,69.2988663 12.5262547,70.2363052 12.0303211,70.3214111 11.4609394,70.1975174 11.2245169,69.8682098   11.1741953,69.1322021 11.3253145,68.0979233 11.7475281,67.865448 12.0575542,67.4973602 12.2667437,67.0093231   12.189189,66.4359894 11.9799995,65.9865875 11.9024448,65.4520264 12.2395105,65.083931 12.9136419,65.1654358   13.4637327,65.9014359 14.2927799,65.9865875 14.6064091,65.7387695 14.5560875,65.4520264 13.7735643,64.83992   13.1228704,64.5958939 12.890399,64.1039124 13.0723543,63.9412575 14.0330753,63.9412575 14.1376705,64.1039124   14.8155985,64.0225601 15.0753031,63.7358246 15.0753031,63.3679237 14.6568861,62.8371582 14.0603094,62.4264946   13.5915699,62.3877182 13.1228704,62.5505753 11.4842215,62.5078468 11.1199217,62.1399422 11.1471558,61.6904907   11.3833838,61.3223991 12.8631659,60.218502 13.0995884,59.8929787 13.1769495,59.5250778 12.3170652,58.9517441   12.1621494,58.4209862 12.1621494,57.3982048 12.8631659,56.6622009 13.8781595,56.1314468 14.2422647,55.7208176   14.2694979,54.9034615 13.7232428,52.9820213 12.3713388,50.8939705 11.95296,50.0378418 11.95296,49.5884361 12.4487,49.2593117   13.4869757,49.0964546 13.6962032,48.8524361 13.8278379,48.3604546 13.14991,47.5818825 12.6811705,47.3378677   11.9024448,47.2137871 11.4842215,47.0123482 10.5235004,45.8269043 8.8576183,44.9670181 7.8698573,43.7390404   6.7773085,42.8401833 5.5300374,42.6349449 3.7595603,41.1627579 3.5000107,40.794857 3.5194962,40.5080719 3.5272827,40.3879814   4.7242327,39.6519852 6.4907579,38.7107506 7.296524,37.9745598 7.4281969,37.2773323 7.6373863,36.8706589 8.4702301,36.2158203   9.2489958,34.3757286 9.7176952,32.5356407 10.0275278,32.0476036 10.0818396,31.757061 10.1088791,31.5556202   8.8343744,29.9983234 8.1564465,28.2821255 7.741981,27.464777 "/>
</svg>
