<svg xmlns="http://www.w3.org/2000/svg" xmlns:xlink="http://www.w3.org/1999/xlink" version="1.0" x="0px" y="0px" viewBox="0 0 100 125" enable-background="new 0 0 100 100" xml:space="preserve">
    <path d="M14.2654409,51.859314l0.3361368-0.3744621l0.7724819-2.0226212l0.5336714-0.7782593l0.5748281-0.5926666  l0.3155575-0.9315758l-0.1180496-0.654583l-0.3773232-0.5896606l-0.0796032-0.530632l0.336134-0.3420639l0.6928787-0.3125191  l0.1798172-0.2152252l-0.1003304-0.96698l-0.2181129-0.8698082l0.0205765-0.3744354l0.1799641-0.2182274l0.197506-0.0912819  l2.7890892,1.2736015l0.4776535,0.0324059l0.2741032-0.3744316l0.2594204-0.0914268l0.4334602-0.4068375l0.1592083-0.3744316  l0.0413342-1.3680382l-0.2595692-0.8401489l-0.4539185-1.0879211l-0.0620327-0.919899l0.4776535-1.571476l0.5719395-0.3715401  l0.3774719-0.0943146l1.3060055,0.3420601l0.3774719-0.032402l1.5832634-0.9316902l0.6927319-0.2801476l0.5336723-0.4982605  l0.1003304-0.2800026l-0.2182312-0.4688644l-0.4953747-0.4658623v-0.3418846l0.2772579-0.1563492l0.3360176-0.0295105  l0.2388115-0.3124008l0.574976-1.9459057l1.046587-0.0441952l0.3950424-0.1563492l0.4364662-0.4982376l0.1975346-0.3744335  l0.3390255,0.0618896l0.6515465,0.3449516l0.9905968,0.1237984l0.6515446,0.4658604l0.7342148,0.7164612l0.3154068,0.1562061  l1.6038437,0.1858597l0.0796356,0.0942822l-0.0411911,0.2152252l-0.2565308,0.4687233l0.1769295,0.1563492l0.5748291,0.0914268  l0.2978668-0.2182617l0.058876-0.1856842l0.5749779-0.4982624l0.1769257-0.2801456l-0.1592369-0.4982376l0.1002159-0.3095074  l0.2978325,0.0293636l0.3154106,0.4983807l-0.0205803,0.6868362l-0.2152252,0.6515713l0.0382996,0.5926628l0.495224,0.3095169  l0.5543976,0.5307808l0.5336418,1.0260086l0.436348-0.0295181l0.3360176-0.3449135h0.2978363l0.5336723,0.436348l0.474617-0.1238289  l0.5925484-0.5277481l0.4776535-0.1887245l0.9286842,0.3125191l0.3361664,0.4039536l0.4953423,0.2181129l0.6132736,0.1857147  l0.6721573-0.032402l0.2388382-0.4658623l0.1384811-1.3060074l0.3361359,0.0619164l0.7930908,0.4982262l1.1469193,1.0260086  l0.4098396,0.1061134l1.4122658-0.975914l1.0288658,0.2152252l0.4157677,0.7164879l0.3155556,0.0649261l0.3359909-0.218235  l0.3978996,0.4658318h0.4955215l0.7517586-0.3420296l0.4157677-0.9345856l0.138485-0.6220551l0.3742828-0.1857147  l0.4955177,0.1561966h0.7341881l0.5335236-0.6869774l1.8397942-0.1857185l1.1292267-0.4363136l0.4157715,0.061882  l0.2976875,0.4982605l0.9875603,0.2801514v0.3125191l-0.3567123,0.403801l-0.0973244,0.2801399l0.0207291,0.6515732  l0.3360138,0.0324097l0.869812-1.5242691l0.4364624-0.3744354l0.4744987-0.2475967l0.4364967-0.5601482l0.2948265-0.0619144  l0.8519402,0.1237984l0.7724838-0.2477436v-0.0647755l0.8490829-0.4982624l0.5571365-0.2477455h0.1770782l0.1975021-0.1237984  l0.3005829,0.0590248l0.3538513,0.0647736l0.7696228,0.9640942l0.4776535,1.0909233l0.5542526,0.2801514l1.0290146,0.0293655  l0.7900543-0.1237984l0.1799316-0.1857185l0.6515732-0.1268311l0.7517624-0.713459l0.3774643,0.0295105l0.2358093,0.1562042  l0.7546158-0.032402l0.5338211-0.1533127l0.2358017-0.1238022l0.9317245-0.934576l0.5746765-0.2801476l1.839798,0.0618858  l1.3650284-0.840147h0.3362885l0.2594147,0.2476273l0.7106018,0.126688l-0.017868,0.4658318l0.1384811,0.2477741  l0.4157715,0.0323677l0.6311111-0.2182293l0.3388748-0.2180843l0.7517624-0.1238289l0.1387711,0.1238289l0.5335236,1.4328117  l0.869812,0.0295105l0.1799622-0.1237965l1.1674957-0.0295162l0.6515732,0.5896606l0.4569244,0.0619125l0.931694-0.3095055  l0.1356201-0.3125515L87.3625946,30.1362l-0.0175476-0.5306282l0.1767807-0.3715744h0.6132736l0.5954132,0.1533108  l0.7724838,0.032402l0.5130615-0.1857128l0.6340027,0.0295067l1.5035172,1.1822128l0.8519592,0.8728142l0.0797577,0.4657135  l-0.3362885,0.3125496l-1.3060074,0.6221771h-0.2386932l-0.1770706-0.218235l0.017868-0.6545773l-0.2772903-0.0619144  L90.4908524,31.97299l-0.1770782,0.2152004l-0.059021,0.5307808l0.1770706,1.4917221l-0.0797501,0.2801399l-0.3152618,0.0649261  l-1.3267288,1.0584106l-0.7134933,0.2799988l-0.474762,0.0620346l-0.059021,0.5601463l0.2976837,0.5277748l0.0590286,0.7458305  l-0.2565308,0.8107796l-0.3979034,0.4982643h-0.5925217L86.33358,39.2227974l-0.1177597,0.5602951l-0.2980118,0.436348  l-0.6719742,0.1857109l-0.5749817,0.4363136l-0.059021,0.4039803l0.2003632,0.5601463l0.8107834,1.0583801l0.5928421,0.436348  l1.3267365,0.0295105l0.5746765,0.654583l0.4955215,0.1237984l0.3152618-0.0944328l0.6723022-0.4333115l0.910965-0.1887474  l0.4364929-0.2476006l0.4157715-0.0914307l0.09729,0.0914307l0.1385117,0.6544342l0.3184204,0.247776l1.1085052,0.2799988  l1.3650284,0.0618858l0.6132736,0.2506332l0.1180496,0.3420601l0.0204315,1.5242386l-0.5335236,1.6805916l-0.2389603,0.4037971  h-0.5925522l-0.1177521-0.1562042l-0.5159531-0.0295067l-0.1770706,0.746006l-0.6161346,1.712841l-0.374321,0.3096619  l-0.1977997,0.3125191l0.1563492,0.7782631l-0.1177521,0.3096581L91.59935,54.3800468l-0.017868,0.8078957l0.0768967,0.1561966  l0.7517548,0.0323753l0.0794601,0.0914268l0.0207291,0.3125458l-0.1001892,0.2771149l-0.5925446,1.2471275l-0.3362885,0.3096619  l-1.1084976,0.2830048l-0.3359909,0.2771416l-0.3184433,0.6869812l-0.0382996,0.9934578l0.2179413,0.5926628l0.059021,0.683979  l-0.4951935,0.9345818l-0.2772903,0.807888l0.0797501,0.3744354l0.454071,0.1562042l0.4186249,0.2801437l0.0590286,0.5896568  l-0.5159531,1.1203003l-0.2565308,0.7488937l-0.0650711,0.6840973v0.0028534l-0.014679-0.0028534v0.1561966l-0.495224,0.1856842  l-0.1975098,0.2182617l-0.4569244-0.0619125l-0.3538589-0.2182312l-0.9109879,0.061882l-1.5656967-2.0843887l-0.7693253-1.8072739  l-0.8139725-0.9936104h-0.4154434l-0.0973206,0.1533127l0.014679,0.1268387l-0.0060425-0.0058975L81.5840454,60.66576  l-2.0373001-0.403801l-1.4859695,1.866272l-1.860527,0.7782631l-1.1675262-0.7782631l-0.0204315-1.5567627l-0.5749741-0.7753677  l-1.2265472,0.8991699L70.1622849,60.66576l-0.4747925-1.1526985l-1.6215591-0.4334564l-1.0701752-1.7748756l-2.7919769-1.2766418  l-1.2265244,0.1563492l-1.4240532,1.3385277l-0.3567429-0.436348l-1.3267326,0.5601425l-3.4642487-0.7164612l0.1385078,1.5567589  l-0.4952278,0.7458611l-0.0178642,0.8726959l0.987854,1.8367882l-0.7105637,0.7783737L53.4160194,62.96838l-0.2093277-2.2936859  l-0.7195015,0.1150131l-1.8015289,1.9929848l-2.3555984,0.3715477l-0.3361359,1.3090401l-0.7930946-0.032547l-1.4652138-1.182209  l0.6928787-1.3385277l-0.2565308-0.4658585l-1.5242386,0.654583l-1.6038742-0.126812l-2.3557472,1.8043938l-3.4229431,0.5925179  l0.058876,1.2766418l-0.8903847,0.436348l-0.4156227,0.0295105l-1.0703201-2.0224991l-0.5719681-0.218235l-0.4155922,1.0909309  l0.6338539-0.1563492l-0.2005424,0.6222076l-0.4156227,0.4333115l-1.1469154-0.1207886l-0.4540672,1.990097l-1.0290146,0.5925446  l-2.2967243-0.49823l-0.9109936,1.0583801l-2.4146233-1.6185226l-2.4736824-0.5926971l-0.5159512-1.4623566l-0.713459-0.5601501  l-1.1469173,0.1238251l-0.8519688,0.9671097l-2.2024364,0.7458496h-1.320837l-0.6928797,0.1562119l-0.2358027,0.4039459  l-0.3361368,0.8402863l-0.1592083,0.1562042l-0.3567438-0.0647736l-0.2565317-0.2476273l-0.4569254,0.032402l-1.621563,0.6515732  h-0.6338558l-0.3950424-0.2476273h-0.3184156l-0.4747944,0.3419113h-0.1767797l-0.3980494,0.2477493l-0.6132736,0.2181091  l-0.5130644,0.0618896L6.5055547,68.944603l-0.4569283-0.0943146l-0.554368-0.4363174L4.960587,68.508255l-0.3154078-0.1857147  l-1.0113258-1.400444L2.999999,66.3914719l0.0207267-0.4983826l0.218116-1.4917221l0.0590239-0.1268387l1.028867-0.061882  l0.4570746,0.2799988l1.0878921-0.1857071l0.6544628,0.0295029l0.4747639-0.1857071l0.2181163-0.2801476L6.9419026,62.564579  l-0.0796041-0.1563454l-0.1798177-0.0914001l-0.613246-0.0647736l-0.138658-0.1238289l-0.0588775-0.9640923l0.3950434-1.0909309  l0.4746156-0.5896606l0.3391719-0.2506294L7.67308,59.0471992l0.3567443,0.0324059l0.1769257,0.1857147l0.1209097,0.7164879  l0.1384821,0.123806l1.0467329-0.1857185l0.7517586-0.7783775l0.4953718,0.1238022l0.5542498,0.2801399L11.6327,59.5130615  l0.3567152-0.3096581l1.621563-0.8107796l0.9492922-0.8696594l0.613246-1.1528206l0.3567438-1.3061485l-0.1384811-1.2145805  l-0.2948303-0.9317245l-1.0909271-0.2182274l-0.3154097-0.2181206l0.03827-0.2801437L14.2654409,51.859314z M42.4717674,58.73769  l2.1965408-1.4653664l-2.0196152-1.6480331l0.3567162-0.9966431l1.1086464-0.3095169l-0.6722984-1.5891571L43.223671,50.986618  l-2.5532837-1.2147255l0.1769295-1.2442398l0.7134552-1.0260086l-0.5748291-1.7423553l-1.9193993-1.8367882l-1.3267326,1.8661537  l-2.7124939-0.436348l-3.1664104,1.432991l-0.3361359,1.4623528l-1.0702019,1.3709297l0.5159531,1.3680382l-0.3567162,1.1526947  l-1.9605885,0.9021797l-0.5336704,1.4623566l2.4352341,1.0878906l1.4240265-0.2799988l2.3557758,4.0775223l2.3556023,0.2504883  l1.149807,0.7783813L42.4717674,58.73769z" />
</svg>