<svg xmlns="http://www.w3.org/2000/svg" xmlns:xlink="http://www.w3.org/1999/xlink" version="1.0" x="0px" y="0px" viewBox="0 0 100 125" enable-background="new 0 0 100 100" xml:space="preserve">
    <polygon points="3.4560187,10.1002769 4.6133261,10.4472237 5.1641865,10.333293 5.9294219,9.9148474 6.869627,9.0197659   7.155663,9.1044598 7.7063913,9.4963989 8.1513481,9.9704609 8.8452139,10.333293 9.8754139,10.6431141 10.728076,10.6987267   11.3345327,10.5849314 11.4219465,10.5028095 11.991291,10.4472237 12.4547338,10.6431141 12.8810635,11.0880709   13.3975229,12.0678406 13.715354,13.5482864 13.7523499,13.68859 13.9112711,13.8580999 15.2088823,14.5280552   15.8153286,14.6950006 16.0430508,14.610177 16.135767,14.1944571 16.5064926,13.603899 17.8042374,13.1589413   18.0372562,12.9074383 18.161644,12.5711117 18.5165863,11.9566412 18.7840061,11.7607241 19.5466728,11.6202879   19.8485985,11.48001 21.6997719,10.1399708 22.4386578,9.4700232 22.9973831,9.411705 24.0645714,9.6341076 26.0375633,9.6633444   26.7314281,9.3851995 27.2292709,9.3851995 27.3881912,9.5520124 27.5655975,10.6431141 27.6371269,11.8719206   27.7933197,12.0678406 28.8103237,12.3750629 29.2366638,12.6823111 29.6470871,12.8491211 30.714407,12.9074383   30.9977169,12.7935076 31.1751213,12.6266985 32.1894226,12.6557989 32.4012299,12.7379246 32.5442352,13.3257542   32.8302727,13.5217733 33.0792084,13.6329765 33.6459579,13.5482864 34.0749969,13.3549643 34.1624146,13.1033287   34.0909157,12.3485537 34.1809006,12.0943489 34.750248,11.368784 35.2826233,10.2776794 36.0637741,9.4963989   36.3312988,9.0488729 36.7046204,8.7125463 37.006546,8.6013203 37.1680641,8.4345341 37.3456001,8.4054298 38.0738678,7.9313951   38.288269,7.9869819 38.6960983,8.9641829 39.6919136,8.9932604 40.4730644,8.6304245 41.2384338,8.0160828 41.4529686,8.0160828   41.3814659,8.7708607 41.4873695,9.329587 41.8423119,9.888339 42.1627502,10.2220964 42.4831581,10.8656454 42.6976929,10.9476347   44.8479576,10.921258 45.0254974,11.0059452 45.1870117,11.0350533 45.613327,11.4534979 46.021183,11.6202879   46.5561256,11.6495247 47.5148163,11.0059452 47.8881378,10.8656454 48.8654442,10.809926 49.4532738,10.9476347   49.6307068,11.0615587 50.0756378,11.5912066 50.3060875,12.2638597 50.3060875,12.7935076 50.2530708,12.9074383   50.0571518,14.2473421 50.0385361,14.6950006 50.6078796,15.171627 51.5162811,16.4295406 51.7995872,16.5963573   52.2789459,16.5116673 52.7768936,16.9035759 53.1873207,16.9882965 55.3032112,17.0703926 55.7640572,17.0148029   56.3149185,16.8188896 56.6724548,16.5963573 56.8312454,16.5963573 57.2577171,16.2892418 57.5437279,16.2892418   57.8985634,16.5116673 58.4679108,16.5116673 59.9244423,15.9264059 60.3348656,15.8973017 60.5652885,16.1197262   60.8857269,16.1779099 61.0287323,16.0376015 61.330658,15.2828302 61.5424652,14.9199953 62.1648254,14.7796879   63.3512383,14.7796879 63.8014908,14.7796879 63.9974098,14.9199953 64.0848007,15.2828302 63.9073982,15.4788799   63.0546074,15.7012758 62.9116058,15.8415823 63.0361252,16.2335224 63.1076279,17.0994968 62.9487076,19.0009823   63.1606445,19.5041256 63.1420288,20.1741829 62.7528152,20.5105362 62.6997986,20.7064266 63.0732269,21.572401   63.6584892,22.5788116 64.4238586,22.5230923 64.6727905,22.6051884 65.6870651,22.6900101 65.988884,22.5496006   66.3782272,21.7948265 67.5540237,20.6482449 67.8188477,20.0629826 68.0862656,19.7557602 68.4412079,19.7822704   69.2410049,20.4521942 69.7229309,21.040184 69.7573318,22.0199528 69.6329193,22.8012371 69.8818512,23.3599625   70.1307602,23.5003986 71.8547134,23.5850868 72.2652664,23.7519016 72.65448,24.0326385 72.8346176,24.5066738   72.9352188,25.8070164 72.9935303,26.1274261 73.3669586,26.4345436 73.8832932,26.4928532 74.5056534,26.4345436   75.0909119,27.1337051 76.2296066,28.9239941 76.6745605,28.9530697 77.0479889,28.7835579 77.8477859,28.7835579   78.1310959,28.8683815 78.2025986,29.4827175 77.741745,31.299387 77.8477859,31.4688969 78.4700165,31.4105854   79.0023651,30.5182343 79.5373077,30.0123653 80.0351486,29.7634602 80.5145111,29.7343559 80.9408264,29.5674381   82.5059891,29.2603207 83.2342529,29.2310848 83.6605911,29.7343559 84.7278824,29.8190727 85.2072449,30.097086   86.7537613,30.1262951 87.1272202,30.3222084 87.3072205,30.6559429 87.2172089,30.9922695 86.8437729,31.3549995   86.7537613,31.5245094 86.7007446,31.9429607 86.4704514,32.5573006 86.594841,32.8089371 86.9152756,32.8645477   87.1113052,32.5016861 87.3761292,32.3057976 88.9226761,32.3614082 89.1556931,33.0604401 89.2802124,33.1452637   90.0084763,33.0340614 90.6308365,32.8645477 90.7896271,32.7533226 91.1630554,32.6977348 91.2345886,32.612915   91.9098358,32.416996 93.4405746,31.7178326 93.7423859,31.6622181 93.745224,31.6675148 94.0971985,32.6977348   94.0258331,33.3676872 93.7240372,34.1224632 92.8710938,35.3538666 92.6223145,36.1933327 92.6567154,36.6382904   92.7653198,36.8897934 93.316185,36.8078041 94.3462677,36.3045349 94.6322784,36.3310432 94.5953064,37.3109436   94.9684982,38.5688591 94.915741,39.0163803 94.452301,40.2187119 93.9570312,41.2780075 94.1158142,41.8394623   94.0627975,42.1174698 93.546608,42.1465759 93.4592133,42.228672 93.4935837,42.3980827 93.6366196,42.591507   94.5422897,43.4865875 94.8813477,43.6270218 95.3949432,43.6003838 95.8214188,43.2641869 96.1074524,43.2933998   96.2132263,43.4602127 96.160202,43.9924545 95.6440125,44.8293228 95.2705536,46.0605965 95.0931473,46.3944855   94.523674,46.7570572 94.6322784,46.9823189 95.1645203,47.6257591 95.3605423,48.0442085 95.3075256,48.2402306   94.7727127,48.4626541 94.6136627,48.65868 94.452301,49.7231407 94.2218552,50.2820244 94.293251,51.9291496   94.6322784,52.5728569 94.7383118,53.0202522 94.6666794,53.915329 94.4706573,54.1933441 92.88974,54.0557671   92.7467041,54.1933441 91.3960724,54.8078156 90.4163055,54.7814369 89.4920197,54.2489548 88.6393661,53.412323   88.3003082,53.3274994 87.9825974,53.412323 87.4476547,53.7193069 87.2702255,53.915329 86.2929153,55.7585068   86.0440063,55.954525 85.2601318,55.9281502 84.8709183,55.7585068 84.1240311,55.6472778 83.6077042,55.8725395   83.3957672,55.8725395 82.9138184,55.5360794 82.5934067,55.4804916 82.4160004,55.7321281 82.4000854,56.5134125   82.1855469,56.9900436 81.7221069,57.2416801 81.0653687,57.3818245 80.5860138,57.3528786 80.3714752,57.633461   79.8921432,58.5551796 79.6432114,58.666378 79.0923767,58.6953506 78.221077,58.973629 77.402832,59.3946457 77.0639038,59.476635   76.2826233,60.0355186 76.0337143,60.4009209 75.2524261,61.0999794 75.2683182,61.4338417 75.8191833,61.5740128   76.354126,61.8812637 77.0479889,62.4957352 77.8106613,63.027977 78.8063431,63.5576248 79.0208511,63.5576248   80.1940765,62.3289223 80.6734314,62.3845329 81.6347198,62.6917572 82.2199478,63.1683884 82.2914505,63.3615761   82.2385635,63.6713943 81.7777252,64.8711243 81.7221069,65.4300079 81.8465195,66.6349106 82.1670609,67.5830002   82.1140442,67.8372116 81.9710464,68.1708298 81.0309677,68.9257431 80.6019287,69.1214981 80.1225739,69.4843369   80.1066513,69.9609604 80.3371048,70.4642334 80.9223404,70.7714844 81.5975876,71.4705124 81.7777252,71.8889618   81.7777252,72.169838 81.6531982,72.5616379 81.4731979,72.7550659 81.5102997,73.0620499 81.8465195,73.5097122   81.9366379,73.5097122 82.3285828,73.9863434 82.3099594,74.3755798 82.0425491,74.9344406 81.8307343,75.551506   82.0266266,77.2834549 82.0266266,78.4857788 82.2755661,80.7499771 82.2570801,81.4490051 82.2914505,81.5338287   83.0568466,81.478241 83.2872696,81.7854614 83.430275,82.5401077 83.5361786,84.3012848 83.7507095,85.3631821   83.7136078,86.3694611 83.7851105,86.761528 85.3157425,90.1432037 85.2972336,90.5616531 85.1357422,91.0385437   84.2379379,92.0686035 82.42659,91.5759506 81.7883148,91.7295532 81.2665558,91.485939 80.9329605,91.1099167   80.9302292,91.1073227 78.9996643,90.9800949 78.5415192,90.7364578 77.8715668,89.9156113 77.8715668,89.9130402   77.5484238,89.9262314 76.3806305,89.510376 76.0999222,89.5395889 75.2895355,89.6189804 74.6592789,89.8995895   72.6678009,89.976387 71.5317078,90.4742355 70.8272171,90.5644836 70.464386,90.5802689 69.9930496,90.5960541   69.4237061,90.8132858 69.1561508,90.5008698 69.2462997,89.5183792 68.7881546,89.2111511 68.2080841,89.1687317   68.1313934,88.9675446 68.0624847,88.7846832 68.0624847,88.7821121 67.6096344,88.6708832 66.5927658,88.970108   66.1980972,88.7239075 66.0550919,88.3398514 66.8363724,87.1455765 67.1487885,86.6689529 66.6112518,86.0384293   66.6086502,86.0358353 66.0974884,86.057045 65.80616,85.1594009 65.80616,84.11586 65.8141785,83.6578751 65.9915848,83.2606354   65.9915848,83.2577744 66.8336487,81.6636658 67.1436005,81.3908234 67.9141541,81.3618469 67.9168854,81.3618469   68.0518646,81.3962479 68.5656204,81.5338287 69.0714645,81.2532425 69.0714645,81.2503815 69.5005035,80.7155685   71.2641525,79.6720581 71.2641525,79.6694641 71.5026016,79.1398163 71.4839859,78.6207657 71.3065796,78.3163757   71.0046234,77.7919159 70.3266754,76.9074326 70.3240814,76.9048615 69.7308197,76.4677963 69.7308197,76.4597702   69.7229309,76.210968 69.905632,75.9461441 69.9030609,75.943573 69.7732239,75.784523 69.4315948,75.3740997   69.6646194,74.7146072 69.6435394,74.579628 69.5322037,73.9201355 69.5058289,73.7745361 69.5005035,73.7453232   69.5005035,73.7427292 69.6064072,73.0886917 69.6037064,73.0886917 69.0846481,72.9112854 69.0820847,72.908432   68.3563843,72.8528442 67.4004288,72.7788773 66.6509476,73.3930817 66.0763092,73.5467072 65.4274292,73.4435043   65.0250092,73.0038681 65.5016403,72.0081863 65.4989319,71.9712143 65.4672623,71.097084 66.6562424,70.0750275   66.4788361,69.3651123 66.3994446,69.0421066 66.3517227,68.8460846 66.6456528,68.0544434 67.0111847,67.5193634   67.1699753,66.6005096 66.529129,65.0617218 66.529129,65.0591507 66.711853,64.73069 67.6732483,64.5613098 67.6732483,64.5587158   68.0995865,63.8304482 68.2028961,63.1735764 70.1545639,61.7302322 70.5226974,61.1953926 70.6180115,60.279129   70.3346786,59.6382828 69.8818512,59.0449982 69.8818512,59.0424309 69.4634018,58.8225975 68.5550003,58.7245865   68.0889969,58.3565598 67.8718643,57.7764893 67.8718643,57.7738953 67.4719315,57.464077 67.0243759,57.6122742   67.0243759,57.6148415 66.6536484,58.0837097 66.5477448,58.6715698 66.5477448,58.6741371 67.6758423,59.476635   67.5725327,60.1306686 66.5503387,60.4989624 65.774353,60.4617004 65.4327316,59.9561234 65.4089203,59.3072548   65.4063492,59.304657 65.199707,58.9232025 65.197113,58.9206085 64.8105011,58.9337959 64.768074,58.7856026   64.6621704,58.4227676 64.7653732,57.765873 64.7256775,57.6122742 64.6144485,57.1648521 64.3867569,56.2829628   64.3840256,56.2803955 64.1272278,56.0101395 64.0504303,55.930748 63.9789009,55.8565178 63.2400398,55.0886879   63.2400398,55.0858269 62.712986,54.8502388 62.1463432,55.2606621 61.5133896,53.9207573 61.5133896,53.9179268   61.1082573,53.544735 60.4514961,53.3088837 60.3905869,53.083889 60.226368,52.4719849 60.2236671,52.4719849   59.5669022,52.2363968 59.1643715,51.8603477 58.9949646,51.4817581 58.7380333,50.9042549 58.7380333,50.9016609   58.4706116,50.6528854 58.4679108,50.6500244 58.020359,50.7984848 58.020359,50.8010521 57.7211609,51.396904   57.0749893,51.4232826 56.4685402,51.7783852 56.4658127,51.7783852 55.8699608,52.1226044 55.3430405,51.8205185   55.340313,51.8179512 54.7735634,52.2363968 54.4372368,51.8603477 54.4372368,51.8577805 53.9843864,51.942337   53.6322784,52.1859512 52.4722404,52.980423 50.7562103,53.4836922 49.6969109,53.1632805 49.5406952,52.5198402   49.5406952,52.5169792 49.2705727,52.2682037 48.8283424,52.5487862 48.3674698,52.3713799 47.7452393,51.706749   47.0804787,50.9916725 47.0778809,50.9916725 45.4703217,51.2564964 45.4703217,51.2590675 45.3591232,51.7173424   45.1074867,51.8577805 44.6308556,51.2963257 44.6811447,50.9652977 44.6811447,50.9626999 43.7833672,51.198288   42.2156334,50.8778801 41.2728348,51.569149 41.0928345,51.4393311 40.9630165,51.34132 40.2956619,51.4817581   39.7184219,52.4748459 39.3581581,53.7379265 39.4614906,54.7310143 39.472084,54.8448105 39.2919502,55.1758385   38.224762,54.442379 38.2220612,54.4398155 38.0367661,54.6435966 38.1294785,55.4486618 38.1426697,55.5521278   37.8857346,55.6286621 37.1601715,55.2712555 36.5484276,54.649025 36.659626,54.188179 36.657032,54.185585 36.0399666,53.3698997   35.8598595,52.2682037 35.3726082,51.5081291 35.2640038,50.4700203 35.2640038,50.467453 35.1209717,50.3402061   34.9938583,50.2209816 34.9197884,49.8397942 34.9064674,49.7681351 35.1184044,48.7168617 35.8863678,46.9874802   35.7407684,46.3546562 35.7883301,45.6501732 35.8095436,45.2953606 35.5050201,44.1116791 35.5235062,43.2243576   35.2030945,42.7107315 34.8932762,42.2100563 34.8985748,41.3574028 34.9012756,40.9045525 34.4881516,40.401413   34.4881516,40.3987122 34.093483,40.287487 33.1454124,39.4189453 33.1031189,39.2600212 32.9097977,38.5185699   31.5697899,36.9665947 31.5697899,36.9639969 31.2731342,36.8315849 30.3912697,37.4592705 29.943716,37.6101646   29.3293781,36.9243011 29.3293781,36.9216003 28.7282276,36.6223717 27.8966274,36.9216003 26.9247494,36.9693222   25.5211029,37.5571518 24.4910431,37.7346878 24.3135052,36.7679749 24.5439281,36.1059151 24.6737461,35.9391022   25.7700367,34.5487785 25.3596134,34.1091423 25.3596134,34.1065445 24.2287884,33.5743027 22.7245617,33.3861732   22.7245617,33.3888702 21.9380875,34.5990944 21.5964642,35.6557961 21.2124157,35.8041229 20.6298828,35.7642937   20.383543,35.7485085 20.1055317,35.7272949 20.1055317,35.7298927 19.9228287,35.9974174 19.78512,36.0503044   19.1574345,36.2966385 18.5032673,36.1986313 17.9207325,36.2913437 17.271862,37.0673332 17.12356,37.2447395   16.6681156,37.2659492 15.3705044,35.9629097 15.3705044,35.9603119 14.2475977,35.6239853 11.4351349,34.0032387   11.0035028,33.4604034 10.3944607,32.6897125 10.4632521,31.4477119 10.6989813,30.9789486 10.6989813,30.9763813   10.3573484,30.6055202 10.7969971,30.3222084 10.7969971,30.3196163 10.4314413,29.5595455 10.5188541,29.2125969   10.6486807,28.6988678 10.2726498,27.6739693 10.4261389,26.8185883 10.2143326,26.5060444 10.1905413,26.032011   10.164032,25.507658 10.1507139,25.2031384 9.343051,24.2709579 8.9034014,23.7652225 8.5088825,22.6688251 8.3711681,22.2927742   8.5379753,21.6995163 8.2519445,21.1884861 8.008317,20.2907047 8.1010323,19.5041256 8.2996607,19.1545811 9.6475725,18.4872246   9.840889,18.2489128 9.843606,18.2462101 9.1020193,17.2505264 9.1073208,16.9591904 9.1179247,16.3898468 8.204361,15.1319332   8.204361,15.1292057 8.0480146,15.0736189 7.626997,14.9252911 6.424696,14.8458939 5.9983559,14.1547594 5.2647934,13.7997894   5.6487088,13.1589413 5.6487088,13.1563463 5.4606833,12.6133776 4.713933,12.0467606 4.430624,11.6070957 4.2875924,11.0800467   4.1895814,10.7040234 3.4534235,10.1055737 " />
</svg>