<svg enable-background="new 0 0 100 100" version="1.0" viewBox="0 0 100 125" x="0px"
     xml:space="preserve" xmlns="http://www.w3.org/2000/svg" y="0px">
    <polygon
            points="4.7139006,22.9890137 4.7000833,22.8696499 4.7916708,22.7253742 5.182631,22.7253742 5.9486251,23.6604252   6.6726131,25.3611851 8.1460314,27.322731 9.003336,27.2644939 9.3363361,27.4698658 9.7663336,27.5281315 9.9521999,27.322731   10.4182396,27.1479874 10.4182396,27.0009956 10.4320564,27.0036869 11.7418327,27.1479874 12.3354731,27.4116287   13.5092411,28.37714 14.9268637,28.3493633 15.5400085,27.9387627 15.7454109,27.4976387 15.8009539,27.1757641   15.65382,26.6486301 15.3901834,26.5320988 15.1877813,26.2989559 15.1487713,26.0048256 15.3736477,25.799593   15.6898613,25.7718163 16.0810986,26.0048256 16.694273,26.0937233 17.4212322,25.8883228 19.0054932,25.9771919   19.5075436,25.5359573 19.7324467,25.5664501 20.234499,26.4154587 20.8866825,26.4432316 21.3722267,26.0630913   21.519083,25.799593 22.0046272,25.272459 22.2268124,25.155817 22.7483978,25.155817 23.233942,25.3611851 24.2966175,26.0630913   24.5380306,25.9771919 24.743124,25.3029518 25.0788422,24.8923206 26.1387997,24.1320133 27.3317947,23.4272804   27.7591019,23.3107777 29.2685623,23.3690147 29.976017,24.0432796 30.6861839,25.1864204 31.0581932,25.5359573   32.4232407,25.7495975 33.5718193,25.8300819 33.8327332,25.7413292 34.4098625,24.5399532 34.6705055,24.306921   35.0617676,24.306921 35.1920891,24.395647 35.4722633,24.8618279 35.7692223,25.155817 36.3103104,25.0975533   37.3894958,24.5121765 37.6336288,24.306921 38.5272217,23.8962879 38.7518501,23.6909142 38.6380386,22.4312725   38.9377136,22.0206413 40.1279907,21.787611 41.4876251,21.3770084 42.139534,20.7027359 42.2698784,20.7332039   42.7193832,20.5279713 44.020752,20.2643356 44.3759766,20.059103 44.5423431,19.5929203 45.1026573,19.062933   45.7743454,19.004694 46.4622917,18.7134247 46.8730621,18.3027916 47.2447929,17.7450275 47.4501915,17.2761574   47.6721001,17.0708981 48.2684593,16.9266205 49.2563324,16.8655262 49.8334656,16.5520267 49.8415947,16.5631561   49.8779144,16.6713924 49.9721909,16.9737568 49.6446037,17.7950211 50.1523705,19.1629257 50.1523705,19.1684761   50.1580582,19.6429214 49.0647774,21.5406475 49.0647774,21.5433693 49.0092316,21.6405067 49.1203308,21.7265167   49.5671387,22.0622349 49.569828,22.0622349 49.5725479,22.0650654 49.5782356,22.0650654 49.5560112,22.226017   49.7974243,22.7558708 50.2995071,23.0472794 50.9709129,23.2802811 51.939312,23.3996468 52.4969101,22.6366482   52.7770844,22.4617405 53.204361,22.5477791 53.4848137,23.3385468 53.9313202,23.3107777 54.3060493,22.9306374   55.1438522,23.1942711 56.1677628,23.9267807 56.8752136,24.6869202 57.9378891,26.326725 58.9615288,26.2989559   59.8743782,26.5320988 61.5336647,26.7678242 62.2023811,27.0009956 62.5933723,26.9703655 63.2095108,26.3572197   63.5061951,25.9771919 63.5452042,25.799593 63.6367912,25.799593 64.3442459,24.8618279 64.2139206,24.0128193   63.7476082,23.7214088 63.3398361,23.1942711 63.3203278,22.5477791 63.4950943,22.381279 63.6701126,22.3674583   64.1001129,22.0982761 64.7325134,22.3563366 65.068512,22.3258724 65.5483704,22.0317402 66.1531067,21.8874645   66.5110474,21.8014297 67.5181732,21.3574753 68.2673569,21.3936558 68.6390915,22.1371479 68.6420822,22.1371479   68.7612839,22.1787376 69.1246338,22.30093 70.4260101,22.2120609 71.9493103,22.3647442 71.9520035,22.3647442   72.9453125,23.0277748 73.1449966,23.6048794 72.6291275,24.9588261 72.670578,25.1226349 72.6816711,25.1642246   72.8564453,25.8967304 72.8564453,25.8994465 73.0702209,25.9160938 73.605629,25.9632359 73.605629,25.9605446   74.1049881,25.4277229 74.5157547,25.3972301 74.9541626,25.6358128 76.1915741,25.6441879 77.8007507,25.6524601   78.3388748,26.6097279 78.5664673,27.5752678 80.6668777,30.3498058 80.9359283,30.7548866 80.9359283,30.7577209   81.2521362,30.9213905 81.7433701,31.9478874 82.0124207,32.5056229 82.7144623,32.7553062 83.0444641,32.8718071   82.622879,33.2741699 81.7851028,34.0732117 81.7851028,34.0760689 82.153862,34.8417587 82.153862,34.8446159   82.5895462,35.177475 82.545105,35.4909706 82.7171478,35.7296638 83.1501465,35.6547508 83.7936401,35.166378 84.87854,35.327301   85.9745407,35.7934799 86.20755,35.8906174 86.9540329,36.0320587 88.5409851,35.7296638 88.546402,36.548069   87.9999008,37.4693298 87.3341751,38.0518684 87.3311768,38.0518684 87.1480331,38.9869156 87.0093079,39.6945076   86.6765823,40.0106926 86.1186752,39.4391403 86.1186752,39.4364166 85.7331314,39.3421402 85.7331314,39.3448334   85.3779068,40.1438713 84.3764648,41.0428734 83.9020462,41.6976395 82.2316055,42.9906311 82.497963,43.4483986   82.4592285,44.3889999 82.6561966,44.7691383 82.6561966,44.7718544 83.1138229,44.9827766 83.4245987,44.813446   83.6687317,45.2656708 83.6495056,45.6791267 83.388588,46.1119881 84.0933228,47.0470352 84.4374237,47.6601791   84.5815811,47.9098549 84.9674149,48.0041656 85.5307236,49.5412598 85.5307236,49.544117 85.916275,49.5857086   86.8957748,48.9530296 87.3978577,48.8504829 87.5810013,48.9558868 87.9776764,49.1861763 88.432869,48.9641266   89.3178024,48.883667 89.5619354,49.1473007 89.8255768,49.4330254 89.8282623,49.4330254 90.1168442,49.5274429   91.0518875,49.3276215 91.2656708,49.4968376 91.2683868,49.4996681 92.5889816,49.7993469 93.5795746,50.4318848   93.6321564,51.2642479 93.3132477,51.9939232 93.1937485,52.2713776 93.3132477,52.7708778 93.4048386,53.1426086   93.4048386,53.1454697 93.7294312,53.3424339 95.5244751,54.4327431 95.6076508,55.9031906 94.9890671,56.8466415   94.780983,57.6928253 94.847374,58.0120087 95.0028915,58.7500916 93.5102158,61.0249901 93.2270737,61.7963676   93.2270737,61.7990837 94.6005249,63.006176 94.9389343,63.4277687 95.1803741,63.8607597 97.0339355,65.5365829   97.3333359,67.437027 97.1669693,67.775444 97.0255508,67.7811584 96.3069763,67.8033524 94.4257584,68.9492111   93.8708572,68.3027115 93.2742157,68.0474854 92.6001129,67.758934 92.1701126,67.711792 91.9563065,67.9087601   91.2377548,67.9363937 91.0047531,68.5636597 90.6495285,68.9131699 90.363945,69.1960602 90.1558533,70.2614288   89.7534866,70.7193375 89.617485,71.7099304 89.883812,72.0678711 90.0780792,72.334198 88.893219,73.5437317   87.6254501,73.4605484 87.0345001,73.8490982 85.7691422,74.123558 85.2724991,74.4676819 85.269783,74.4676819   84.3485489,74.8646088 84.3485489,74.8673248 84.1764984,75.0586014 84.0185471,75.8050919 83.641098,76.407135   83.2138214,76.679184 82.7366867,76.5680923 82.497963,76.620636 82.284462,76.6623688 82.284462,76.6650848 82.2094116,76.8539505   82.1066971,77.1230011 82.0514297,77.2671356 82.0790634,77.7028198 81.8265533,77.885994 81.5325623,78.0940857   81.8682785,78.4520035 82.4508209,78.7432709 82.7117386,79.1429443 82.8642807,80.2719879 82.8003311,81.1904984   83.2138214,82.1282654 83.0555878,82.7303085 81.7655945,82.5000229 81.3133698,82.6498489 81.3133698,82.652565   81.0080109,83.0855331 80.5170517,82.8162079 80.3615112,82.7303085 80.3615112,82.7330322 79.8011932,83.9677505   80.2368774,84.9055176 80.1230698,85.0553436 79.7624359,85.5577011 79.7624359,85.5603943 80.0786514,85.565834   80.5308762,85.5742111 80.802887,86.5119781 80.3783264,87.116745 79.9759674,87.1446533 79.9759674,87.147377   79.7735596,87.4608459 79.5459671,87.8716125 79.5432434,87.8716125 78.6664352,87.3248367 78.0364761,86.5146942   78.4361496,85.5492935 78.0947418,84.9001083 78.4694748,84.3172913 78.4694748,84.3145676 77.7950668,83.720932   77.6148834,83.6987076 75.8168488,83.476799 75.6838074,84.5142593 75.4006653,84.974884 74.8568878,85.2439346   74.4518051,85.2496185 74.3992538,85.2024765 73.9470291,84.7751999 73.8941803,84.7529755 73.8884888,84.7472916   72.7732697,84.3256683 72.4126282,83.9482498 72.2543945,82.6027069 72.2543945,82.5999908 72.0685349,82.4639816   72.0685349,82.4612656 71.9631271,81.4760818 72.4291611,80.9184799 72.6345367,80.2443542 72.4847107,79.9500885   72.0934448,79.9224472 71.8132782,80.0972214 71.4607697,80.0972214 71.2917175,79.8918457 70.9947281,77.3142776   71.0307693,76.6125107 71.3664856,75.4414597 71.219635,73.0999146 71.2361755,72.0456467 71.3664856,71.3712387   71.069809,69.3792038 70.7893524,68.6162109 69.8212662,68.177803 69.35495,67.7673416 69.1885834,67.3871689   68.9084167,67.1235352 68.2952652,67.2124329 67.7541809,67.1818008 67.1965485,66.4521255 66.133873,66.3049927   65.4624634,66.6545258 64.8492889,66.5103912 64.0833282,66.099617 62.8542938,66.0413513 61.7000237,65.5143585   61.1036644,65.3366241 60.5625763,66.9764252 60.5457878,67.2400665 60.6763878,67.3871689 61.0481186,67.4454346   61.3643341,67.7976608 61.4393845,68.8216095 61.2895584,69.3486023 60.9175224,69.9647446 60.0602455,71.6627884   60.0049782,71.9844131 60.0797539,72.1038895 60.6373787,72.1315231 61.1036644,71.9844131 62.0165176,71.9567795   62.1660652,72.0456467 62.221611,72.4840546 61.605751,73.3023224 61.028614,73.4800568 60.8067055,73.6548233   59.6497536,73.9487839 59.0726204,73.7130585 58.6065826,73.7130585 58.0682144,73.9487839 57.712986,74.6814575   57.4910774,74.6814575 57.3217468,74.5619583 57.1553917,74.4178238 56.8391724,73.8905487 56.4284019,73.6548233   55.4047661,73.6854248 54.4336777,73.5076904 54.3613167,73.5965576 53.9508514,73.7130585 53.448494,74.123558   53.2238731,74.1514664 52.089138,74.0070496 51.9224968,73.8767319 51.7144089,73.7130585 51.6783676,73.5965576   52.0308723,73.2440567 52.255497,72.775322 52.6662674,71.4601135 53.448494,70.4031525 53.3932266,69.8758774   52.888176,69.4680786 52.3858185,69.3486023 52.0501251,69.6734772 51.697876,69.6734772 51.3982239,69.4680786   50.7655449,68.6771622 50.3190079,67.4757919 50.374279,67.0653 50.560421,66.9181671 51.1928215,66.8599014 51.3234177,66.5962601   51.1763153,65.483757 51.4537659,65.0149994 52.0308723,64.8399811 52.1612244,64.6931229 52.1446838,64.254715   51.9753304,64.0493469 51.3816833,63.8745804 50.4853706,63.8745804 50.0385857,64.1075821 49.6668243,64.4294891   49.3506393,64.54599 48.7540016,64.4877243 48.4182854,64.1964493 48.2270088,63.3001671 47.0949669,63.3169518   46.4427834,62.9061813 46.1266022,62.467804 45.9602394,62.115551 45.0278854,61.5606422 44.2843895,60.886261   44.2093391,60.886261 44.1345634,60.7394066 43.1274338,59.8016396 42.6446075,59.6545067 41.8065338,59.8599052   40.5387611,60.7976456 40.1835442,60.7114944 39.6619797,60.3869019 39.4205437,60.1232643 39.1043549,59.2743645   38.7686348,59.2743645 38.6019974,59.4215012 38.0804443,59.3908691 38.0056381,58.3672333 37.4090042,57.4291878   37.1288567,57.2240944 35.4722633,57.9288254 34.9314499,58.3086891 34.540184,58.3948669 34.1684494,58.3366013   34.001812,58.2200966 33.3859253,57.5456924 32.7700577,57.1658287 32.2872314,56.6385536 31.9515114,56.4637871   31.1885147,56.4944191 30.7777443,56.7274246 30.7585163,57.2544212 30.9443817,57.8705635 31.2245598,58.2504501   31.726635,58.4837341 31.9515114,59.1854973 31.876461,59.6265945 31.3188343,60.0956268 30.6113853,60.5063744   29.9204674,61.0916328 29.6931496,61.4717751 29.6790543,61.4717751 28.9716034,61.0612793 28.7857399,61.0333672   28.5611095,61.4135323 28.2641506,61.6189079 27.9284325,61.6189079 27.4261017,60.9724121 27.0156097,60.9141731   25.0040684,62.0876389 23.736021,62.964447 23.4753532,62.9061813 23.1396618,62.5843086 22.3211193,62.115551   22.1712666,61.6189079 22.6373043,60.5340042 22.6763153,60.0067329 22.0241318,59.9484978 21.3332157,59.3908691   21.0365353,59.3326302 20.6257648,59.4797363 19.4522743,59.2160988 19.2108612,58.7470932 18.5754929,57.8399582   18.8000908,57.3709221 19.0054932,56.5526543 19.0805416,55.9644279 19.0054932,55.4371529 17.8872681,53.9444771   16.7137775,51.3669319 16.3780575,51.3086662 15.6343155,51.835804 15.0379562,52.5988007 14.7214651,52.5683365   14.460825,52.3353043 14.0308266,51.4251976 14.1998796,50.4901237 14.0308266,50.312664 13.1372309,50.1655312   12.5603771,49.8742599 12.1883392,49.347126 12.1496096,49.0252495 12.4657927,48.6728554 12.8765631,48.525753   13.2317877,48.1762123 13.287056,47.9708443 13.1567364,47.8516235 12.7654705,47.7655792 12.3742332,47.8820877   11.9442358,48.234478 11.4226503,48.4674873 10.7707443,48.4398499 10.2491589,47.8820877 9.9717054,47.327179   9.7107906,46.3311768 9.5053892,45.804039 9.2252464,45.7151718 7.7908106,46.2118149 6.339613,46.5364075 6.2453065,46.6224442   5.7988,46.6529388 5.6877108,46.5059395 5.6489472,46.2423058 5.8930788,45.8316765 7.0473423,44.5137711 7.1026111,44.222496   6.9527583,43.7536278 6.6560769,43.1958656 6.4311728,42.0833282 5.9846663,41.3813171 5.723721,40.2076874 5.4018469,39.6527786   5.0358024,39.2727776 3.9731264,38.7455063 3.6566348,38.5097809 3.5068099,38.1878738 3.4875822,37.3971062 2.3720794,36.7256927   2.3333189,36.4315681 2.5747316,35.7296638 2.463639,34.1481247 2.4915509,34.1481247 2.5939867,32.9467468 2.8188632,32.3030815   3.4152224,31.540081 3.4320362,31.2459812 3.1710908,31.0712166 3.0047324,30.1639423 3.0407708,28.9347668 3.581861,28.407629   3.9370852,28.288271 4.1589928,28.1135025 4.4751792,27.6168613 4.3643641,27.1174984 3.6374073,26.2102261 3.2461698,25.8883228   3.0047324,25.4776917 2.9491832,25.2141933 3.2101285,24.8618279 4.0479002,24.5981884 4.5694857,24.2180519 4.7000833,22.9890137   4.7082124,22.9834652 "/>
</svg>
