<svg enable-background="new 0 0 100 100" version="1.0" viewBox="0 0 100 125" x="0px"
     xml:space="preserve" xmlns="http://www.w3.org/2000/svg" y="0px">
    <polygon
            points="8.14923,43.3361244 8.4194736,43.0820198 9.0970631,41.1213264 9.3149405,40.6978302 9.9645376,40.1451378   10.2347813,39.6328163 10.4242945,38.1442986 10.6945333,37.8860474 12.5906029,37.8458672 14.1640301,37.4182625   16.0033398,36.6961327 17.8470478,36.4822083 18.4399281,36.1394768 19.1982822,34.4370346 19.6584015,34.0135498   20.7433109,33.4165154 21.6915474,32.5652161 21.9618263,32.012516 22.1513042,31.2017536 22.3407822,31.1170387   24.0190182,31.1170387 24.5634441,30.8184471 26.9436798,30.903162 27.7303905,30.6490593 29.924654,29.2412682   29.8722515,27.7082214 30.6026497,27.7082214 32.038559,28.6481876 32.4703598,28.7732754 35.3264427,26.1391487   35.3426208,25.1103535 34.826149,21.1974792 34.3140259,19.7491455 34.0153885,19.107769 33.5273132,18.6397896   31.5504837,17.7039318 31.034008,16.9778957 30.7113667,15.9128752 30.8445301,13.0205259 31.2802486,11.5721521   32.6519699,8.9985228 33.2326279,9.2244272 34.5358162,8.5708838 34.5397339,8.5708838 41.2080803,8.4296532 42.5955811,8.583107   43.5599556,6.5781121 48.0375557,7.6147814 48.3077888,7.6754527 48.4330864,7.7036033 48.8404007,7.8005075 50.1999474,8.1150732   51.3577499,6.4126444 51.9384041,6.3320847 52.9268188,6.1989145 55.0407677,4.9766955 55.0407677,4.9725733 55.2948303,4.6377168   56.6984634,2.77 61.8016586,6.2109432 63.7217712,7.9980865 63.7055931,8.3772507 63.6169662,10.6806746 63.5968781,11.2294216   63.9033813,14.1418943 65.3877792,14.9768629 66.1460953,15.4730463 66.1504517,15.4771547 66.1544037,15.4811144   67.3484344,16.9010887 68.3530197,18.5915031 68.3569336,18.5915031 74.5612183,19.5958862 75.1584473,20.2291527   75.1584473,20.2333088 75.476738,20.2937717 75.4810944,20.2937717 77.2763062,20.632555 78.7523956,20.9069424   80.2371979,20.2937717 82.472084,19.963028 86.5100098,21.8106499 86.8326569,21.9597454 87.4417114,22.6859913   87.2443237,23.2830257 87.2443237,23.2869778 87.752533,23.4201336 87.7686691,24.3077049 87.9865417,24.6707268   87.9904633,24.6746407 88.5510635,24.5980339 89.8581696,24.4205379 90.0196915,24.5860119 90.1689911,24.7433796   90.1689911,24.7473259 91.0482864,24.7796459 92.2663574,25.715456 92.2825317,26.8086758 92.2825317,26.8732529   92.2825317,26.8975048 91.7018356,27.934166 90.9675217,28.6804924 89.7333145,29.1120586 89.1884766,29.2976227   89.1884766,29.3017311 88.7610321,30.6328831 88.773262,31.5567131 88.773262,31.5608273 88.7771683,31.8149242   88.7811279,31.8149242 88.7811279,31.8188839 90.7496872,32.6176186 90.8304443,32.8596992 90.5964355,33.8520279   89.6001511,34.1183472 89.4102707,34.1668015 87.9180069,34.0375938 87.4779358,34.3805237 87.3290405,34.4935989   87.3290405,34.4975128 87.3408585,35.231823 87.9542313,36.4016495 87.6639023,37.2003822 87.5263824,37.5876503   87.5386047,38.4710541 86.9859085,39.3745995 86.812561,39.665123 85.941185,39.0680885 85.7595673,38.947155   85.6909866,38.9753036 85.1505127,39.1971016 85.0173492,39.2497063 84.8841858,40.2863617 84.4646454,41.2060432   83.5932159,43.1101723 83.5932159,43.1182404 83.6015244,43.8442879 83.6054382,43.8484459 84.9527588,44.5664177   84.4847336,47.0876808 84.2668991,48.2616119 84.0490189,48.8505783 83.5569916,50.1939545 81.2094727,52.1463356   81.2094727,52.1504936 81.0680466,52.739418 79.7652588,54.6837692 80.2411499,55.2565651 80.3703613,55.4098167   80.3743134,55.4139252 82.4397736,54.6878891 82.6532898,54.7726021 83.0771866,56.0471916 82.6170273,56.406292   82.6170273,56.4104156 82.0481873,58.0399971 80.5921478,59.6900291 79.7447662,62.4977074 79.1557999,62.6670876   79.151886,62.6670876 77.8814087,63.022049 77.2601318,63.1995049 76.937088,63.2883263 76.812233,63.8369179   76.5821762,64.8091965 76.5219116,65.0632629 76.2634506,65.603775 76.2634506,65.6078873 76.0578384,66.0274734   75.8037338,66.5518112 75.4972305,66.8059158 74.9445267,67.1368256 74.11763,67.0359726 74.0329208,67.0237503   72.7943573,68.189621 72.4272232,68.5284424 72.4634476,70.4124908 72.4634476,70.4487076 72.9676971,73.8291779   72.9676971,73.8333359 73.4963989,74.2648849 74.9200821,75.422699 76.6912994,77.7381439 77.1592865,78.2465057   77.2116852,78.3069763 76.3725662,78.7627792 74.9362564,78.8516083 74.0691833,79.0613785 73.7465439,79.3598175   73.4479065,80.0415268 72.9074249,80.8524857 72.3101959,81.4495163 71.3099594,81.8730087 70.3333664,81.9576797   69.5186996,82.7282562 69.2768097,83.4060593 68.7603378,83.7044525 66.8682251,84.0877686 66.2146683,84.3861618   66.0251541,84.3418655 65.0773239,85.3222122 63.1004906,85.9192123 61.3698959,86.2580185 60.934185,86.8550568   61.099659,88.6865005 60.7730637,88.9850998 59.4738274,89.5821381 59.1188774,89.8805695 57.5498047,90.7316742   56.763092,90.8163834 56.3313293,90.3889389 55.9239731,89.7111435 55.7344971,89.5821381 55.1656189,89.5821381   54.7866631,89.9209518 53.9475479,91.6676865 53.5681953,91.79673 51.8982277,91.6797028 49.9135323,91.3690872   49.3726501,90.860878 48.340107,89.198822 47.3115082,88.2184753 45.1168442,88.1338043 44.4955635,88.3031921   42.7610168,89.3278351 41.219902,90.4332733 40.7317848,91.0303116 40.4335899,92.0106125 40.082592,92.1355057   38.5375214,91.114975 37.8315697,90.8163834 37.0732155,90.8163834 36.7501717,90.9859772 36.0442162,91.7523956   35.8306961,92.1355057 35.1247444,92.6882095 34.176506,92.6478271 33.4465523,91.4134216 33.1195526,91.3690872   32.3896027,92.0106125 30.0861797,91.8814087 29.0292225,92.1800461 28.1377048,92.0507965 27.5688686,91.7120132   27.1091118,91.7523956 26.7821541,92.0507965 26.8388729,92.4784393 27.1331539,92.817421 27.5164661,92.9868469   27.7303905,93.753273 27.6496334,94.2212601 27.3509903,94.8626251 26.4595127,95.4596176 24.3983727,95.5 22.691782,94.096199   21.8286629,93.712883 19.924324,93.5030823 19.924324,93.4991684 20.0133553,92.5631561 20.3643551,91.538475   21.0703087,90.0056229 20.9895477,89.198822 20.4167576,88.8155136 19.7954788,88.6017838 19.6863575,88.0894623   20.0657578,86.9840698 20.7433109,85.7053223 20.66255,84.7694702 20.3643551,83.9585571 20.4167576,82.5992508   20.8524704,81.6592865 21.3121929,81.2800903 22.8288975,80.892868 23.2890167,80.4691696 24.0997753,78.7627792   24.2368546,78.3836212 24.2084904,77.9559784 24.0997753,77.8308868 23.0711803,77.7865829 22.9659729,77.5728683   22.9904194,76.4674606 23.2890167,73.9946518 23.4501362,73.570961 23.2362118,72.5061035 23.506855,72.0784988   24.0190182,71.6548004 24.8620415,69.311203 25.1043262,68.2904739 25.8102779,68.3308487 25.9713974,68.5445786   26.7821541,68.5445786 27.1091118,67.9920807 27.8391075,65.6926041 27.8111515,63.6070595 27.6496334,63.1390343   26.8105125,62.7961006 24.9428082,62.7114296 23.4260941,62.3283157 22.9904194,61.9892998 22.8009014,61.0938683   22.6677799,60.9687653 22.0989017,61.0938683 21.5016651,61.4326439 20.2552357,61.6909027 19.3353577,62.283783   18.9040012,62.4129906 18.2260036,62.2436028 17.4396935,61.3479652 15.6243849,61.3075905 14.8132248,60.710556   13.7038698,59.2624245 13.4297228,58.4960022 13.510479,57.9432526 14.2971935,57.3462639 15.2166262,57.0921631   15.6243849,56.4951286 15.7855034,55.7285042 16.1125011,55.5591164 16.9232178,55.5591164 17.4676476,54.8773651   17.8186474,53.768013 17.7378864,52.7475281 17.3305721,52.0253983 17.4113331,51.258976 18.0609322,51.174099   19.0371628,50.7909889 20.8524704,49.3428154 21.2838287,49.2539825 21.3929482,48.8706741 21.1506653,46.8296242   21.2314262,46.1033783 21.4737091,45.8089294 21.8526649,45.5506783 22.2320652,45.6353912 22.2076187,46.5310173   22.4499016,46.8296242 22.776495,46.8296242 24.5634441,45.9783249 25.0235634,45.5506783 24.914444,44.9134636   23.7487392,43.7192345 21.6915474,42.1016693 20.8240757,42.0612946 20.1220722,42.3153954 19.0651188,42.2710648   18.2504501,42.0612946 17.4113331,42.0612946 17.1694546,42.5697021 17.1934605,43.2957382 17.7623329,45.7646027   17.5767689,46.1922493 16.3019791,46.6157341 15.6767874,46.5310173 14.7852688,45.7242165 13.1878386,45.7646027   12.9416065,45.9339828 11.7514868,45.8936119 11.0214911,43.9331589 10.8316097,43.7637291 9.8030157,43.9331589   9.3393459,44.2315559 8.4758244,44.5301476 7.9069471,44.4858589 7.7174692,44.1468391 7.7419157,43.5094643 "/>
</svg>
