<svg xmlns="http://www.w3.org/2000/svg" xmlns:xlink="http://www.w3.org/1999/xlink" version="1.0" x="0px" y="0px" viewBox="0 0 100 125" enable-background="new 0 0 100 100" xml:space="preserve">
    <polygon points="16.0546875,66.0347366 15.7377033,66.2424927 15.3731699,66.024086 15.4103422,65.832428 16.0359402,64.9616318   16.7681503,64.1735306 16.8589172,63.8087082 17.2156506,63.5266075 17.3061504,63.3588905 17.1436272,62.3468971   17.1810627,61.6440811 17.5911274,60.4911575 18.0916653,60.0145264 19.0766087,59.8442307 19.4148903,59.5087967   19.5932579,59.226429 19.4866467,58.6939125 19.6119728,58.467701 20.344183,58.3558998 20.9351997,58.1029015   21.5953846,57.4291878 21.4890404,57.1470604 21.1481514,56.7263451 21.201458,56.191246 21.4518719,55.96735 21.827055,55.7970505   22.4183617,55.2910538 22.8843136,54.7026253 23.4194126,54.3352394 25.4215412,53.7468109 25.5999355,53.5790939   25.4935913,53.2116814 24.8864422,52.4820824 24.6175747,51.9469566 24.6362934,50.1762352 24.4925137,49.8676147   23.0252171,48.7438164 21.9524097,47.4790916 21.1481514,47.6467819 20.4346848,48.0141907 20.2004051,47.9850883   20.1125126,48.0703697 19.2552414,47.9850883 18.8077412,47.508461 18.7013969,47.1701775 18.6106567,46.0466499   18.3417892,45.5968056 17.9850597,45.2320061 17.8066654,44.3879929 17.3940163,43.9379082 16.7523079,43.4319115   16.4834404,42.9820709 16.5018921,42.7849846 16.6272449,42.6172676 17.7346401,42.6731834 17.9850597,42.3642693   18.075531,41.8585396 18.1634216,41.8585396 18.3417892,41.632061 19.2019367,41.3231468 19.6998653,41.0436287   20.8285866,39.9760132 21.4518719,39.105217 21.2386513,38.2611771 21.5077591,37.670166 21.6674099,35.8435555   21.8829708,34.5788269 22.2025337,34.1289825 22.4183617,34.2142677 22.3996201,35.5349083 22.5434227,36.1524391   22.7405071,36.4054375 23.4194126,36.4348335 25.4030895,35.7026215 26.1007137,35.8144264 26.6917534,36.1524391   27.1735477,36.2936363 27.4585266,36.2642403 28.2466507,35.7317238 28.5846634,35.6173401 30.211607,35.7317238   30.7308636,35.9262276 31.2659626,35.8994408 32.2140007,35.4789925 33.0712738,34.8318253 35.0734024,34.8877144   35.2465782,34.6162643 35.3425369,34.4669991 35.3609886,34.1848984 35.2517967,33.764183 34.1256561,32.6965408   34.306633,32.302372 34.7541046,31.9934597 35.3771248,31.8257446 35.8615265,31.5142479 36.2185249,31.0376453   36.2370033,30.5051289 36.0214424,29.9965229 35.2892303,29.0700779 34.4665451,27.6641541 34.1443748,27.2434673   33.9844589,26.2876263 33.4467506,26.202343 33.4467506,25.4730091 32.8929062,24.2641697 32.5174332,24.2641697   32.000782,24.4318867 31.6255703,24.3491859 31.5535488,24.2082825 31.6068535,23.8993702 32.1419792,23.2521763   32.2324524,23.2789612 32.5361748,23.0844593 33.1084709,23.1403732 33.268383,23.2256565 33.7873764,23.2256565   34.2881546,22.9700737 34.9137573,22.4934464 34.8765831,22.0995178 34.716671,21.8197327 34.7699776,21.6788292   35.126709,21.537632 35.8430748,21.0051155 36.2185249,20.8907051 36.7003479,21.0875225 37.2541885,21.4523506   37.5604935,21.4258308 38.2206841,20.8639202 38.9716072,20.6377068 40.0259666,19.6818924 40.8486748,18.6992664   42.4035721,17.6607533 43.2078056,17.3227367 43.4046478,17.0697403 43.4925423,16.7876129 43.2608414,14.2313738   43.1011963,13.9757929 41.7246666,13.919879 41.2959099,14.0610733 40.6328468,14.5962009 40.2948341,14.511158   40.2230759,14.3432026 40.2948341,13.8080769 40.3827248,13.6109924 40.6328468,13.4432764 41.2426033,13.3023462   42.2439232,12.7963467 42.6724396,12.4609165 42.7603302,12.4609165 43.5112572,11.7846203 43.5299759,11.4757051   43.4392357,11.2521038 43.0640259,11.1668215 42.9945831,11.0550175 42.7070236,10.9697104 42.5473785,10.6876106   42.7257423,10.2962904 43.6017342,9.5081663 43.6178665,9.0021667 43.3861961,7.8518538 43.4046478,7.3167281 43.4181747,7.3167281   43.6363182,6.9519277 44.2993584,6.3902826 44.97826,5.9961114 45.5133858,5.5460043 45.5854111,5.1227069 45.369606,4.4492598   44.8877907,4.22539 44.6189194,3.8608294 44.4405518,3.2695496 44.4590034,2.7638187 44.853199,2.5402153 45.5854111,2.5108202   45.9075813,2.6785338 46.3709259,3.1845334 46.9619408,3.5490675 47.5529785,4.1962614 47.7128944,4.308063 48.0696259,4.3639774   48.4451027,4.2812777 48.9640923,3.9167435 50.5538406,3.2404478 50.8226852,3.4372656 51.3952446,4.3374581 51.4670296,5.3197913   51.9675407,5.3491859 52.1274529,5.2079868 52.4496269,5.2079868 52.7530594,6.0226331 52.9847527,6.2756314 53.4852676,6.5871272   53.8261566,6.6698003 55.0427704,5.7699008 55.8470268,5.5727897 56.3103714,5.7139864 57.2768631,6.6139126 57.3486176,6.7548432   57.4206429,6.7548432 58.1341362,7.4020104 59.0288658,7.9345269 59.1885185,8.2725687 59.4919434,8.6932564 60.1178093,9.0874519   61.2041702,9.0713425 61.3877296,9.9314632 61.7098999,10.2109785 62.2824631,10.2668934 62.5858917,10.1550941   62.9426498,9.8461809 63.3714066,9.6225777 64.2315521,9.6225777 64.8012466,9.7902908 64.9637604,9.9873781 64.9796371,10.4080925   64.8545456,10.5490227 64.3007278,10.7169781 64.0344696,11.1668215 64.1756363,12.234437 64.0503082,12.4874363   63.443428,12.5433502 63.2647972,12.6845465 63.2117577,13.078476 63.640274,14.2313738 64.2474289,14.9903698   64.5349884,15.1874809 64.873024,15.1874809 65.1951675,14.8757191 65.6772537,14.9903698 66.1619263,15.3817139   66.2149658,15.8877134 65.4643021,16.9020233 65.0701065,18.1641674 64.8545456,18.6139851 64.5162659,18.9522648   64.5508499,19.064064 64.7505417,19.2211323 64.9104614,19.3461952 65.9994049,19.4847813 66.2149658,19.4579964   66.697052,19.064064 67.09095,18.9522648 67.1603928,18.8669834 68.0923004,19.0375481 69.0746307,19.0081787   69.4688263,19.2343922 69.7722855,19.7403889 69.9319305,19.8787117 70.094429,19.9933891 70.3073807,19.9933891   70.6482773,19.2902794 71.164917,19.064064 71.6121521,19.064064 72.1659927,19.2902794 73.276268,19.0081787   73.4892197,18.8404636 74.0430679,18.669899 74.6340714,17.8846493 74.5807724,17.4639359 74.4372559,17.3786507   73.5612411,17.4051723 73.1137695,17.5463428 72.5786438,17.5198231 72.5068817,17.4051723 72.5599213,17.0965252   73.3826065,15.4669981 73.7396317,14.8757191 73.8834152,14.3699884 73.8113937,13.3873625 73.5079346,13.0493469   73.151207,12.993433 73.0258789,12.8522606 73.0419846,12.5992641 73.5612411,11.0256252 74.1335373,11.1961899   75.2412262,11.7019205 76.4206696,11.7578354 77.1557236,12.15203 77.7441559,12.2903519 78.3884735,11.9549198   79.4082718,12.0961161 79.9433975,12.7963467 80.4626541,12.8257437 81.0510559,12.7404318 81.3199234,12.993433   81.4795761,13.3582602 81.9270706,13.752162 82.856102,14.1728773 83.1252365,14.9050875 83.4099426,16.8167419   83.2848892,17.4639359 83.2690125,18.4756622 83.4099426,20.722723 83.0877762,21.8465195 83.0531845,22.5199661   83.3381882,24.9935322 83.5004196,25.1906147 83.838707,25.1906147 84.1075668,25.0228996 84.4830475,25.0494194   84.6268311,25.3318119 84.4297409,25.9787407 83.9825058,26.5138397 84.0836639,27.4592686 83.9850922,27.3872452   83.6416168,27.4111557 82.0947647,28.1701508 80.7234268,28.1886292 80.7208481,28.1886292 79.932724,28.6920185   79.932724,28.6946259 80.057785,29.9299583 80.057785,29.9328346 80.2387543,30.0446358 79.8820267,30.5344982   79.8820267,30.5371075 79.6532059,32.4807396 76.9932327,33.4633369 76.199646,33.9586868 76.199646,33.9612694   75.7310867,34.7306747 75.6725922,35.4948616 75.3743591,36.2697258 75.1640167,36.8180847 75.3103943,37.6035995   75.1798477,38.0191231 74.7726593,38.3703957 74.1788025,38.3571358 73.300209,39.0386505 73.300209,39.0415001   73.0791779,39.6457748 73.1538162,40.0852051 73.8940659,40.929245 73.9205856,41.2727203 73.1829147,42.2311401   73.1829147,42.2337494 73.1883774,42.6040115 72.6985092,43.6050873 71.0476608,44.4597511 71.0476608,44.4623604   70.8240509,44.7899895 70.9758987,45.8524132 71.0528488,46.0201302 71.0876999,46.1025352 71.3165207,46.6270103   71.3297806,46.6537971 71.3297806,46.6563797 72.0167313,47.0131378 71.6467438,48.1501961 70.8320923,48.6028862   70.4459686,48.6559258 70.4459686,48.6587753 70.1981888,48.9143829 70.3206406,49.3962021 69.9373856,49.7503242   69.1838531,49.5532417 68.5954208,49.7209587 68.1879883,50.0751076 67.6580582,51.1721191 67.6580582,51.1747017   67.9004059,52.026783 67.5675812,52.7670593 67.0964355,53.0998802 67.0964355,53.1024933 67.0696487,54.4179153   66.8088531,54.6467361 66.1697235,55.1953621 65.256546,56.2497444 65.256546,56.2523499 66.1990967,57.0004044   67.0191956,57.1044312 67.684845,57.5090103 68.3317719,58.2412224 68.4064026,58.4383049 68.520813,58.7446098   68.2891159,58.8936081 68.0044022,59.074585 67.852562,59.053524 67.5436478,59.0054092 67.0324554,58.9255829   66.7742691,58.8884163 66.4866791,59.1439972 66.4812241,59.1466064 66.4812241,59.149189 66.9258499,60.1104889   66.321579,60.5603027 66.3083115,61.2314339 66.1138153,61.8809433 65.5974274,62.2832069 65.775795,62.5439796   66.2256165,63.1989746 66.1751862,64.4265366 66.4068527,64.83918 66.5054016,66.7775955 67.5704346,66.5539932   68.2732697,66.6842422 68.7444153,66.2370377 70.4085312,69.9911728 70.7600708,70.784729 70.7600708,70.7873383   71.0395889,71.0484009 71.4709549,71.4477921 71.5029602,72.0016327 71.2660675,73.0240097 71.2925873,73.1438828   71.3856735,73.5749817 71.3885498,73.5749817 71.3885498,73.577858 72.4135361,74.001152 73.1777267,73.5510712   73.6756516,73.5671768 74.1309509,73.8173294 75.0573959,75.2817459 73.8087845,76.5945892 73.8087845,76.597168   73.617157,77.7527008 73.3373718,78.5007553 73.3134613,78.5673218 73.3134613,78.5701981 75.9068756,79.5499496   76.5431213,79.9547958 76.3647537,80.095726 76.3647537,80.0983047 76.2183685,80.7293625 76.194458,80.8411942   76.0852356,81.1209793 76.2529526,82.015419 76.2823486,82.3643723 75.90168,82.6917419 75.2225037,82.8542404   75.0680466,82.8888245 75.0680466,82.8914337 75.0735092,83.4000168 74.974968,83.551857 74.365242,84.4970245   74.3571701,85.7459106 72.9247208,86.5737839 72.9247208,86.5763931 72.8368301,86.805481 73.0287247,87.7027969   73.0313339,87.7027969 73.0313339,87.7053833 73.819458,87.6016464 74.2055893,87.7373886 73.9179993,88.3629837   74.2640839,88.9568481 73.6650009,89.4441299 72.4481201,90.4264908 72.1818619,90.6422882 71.8383636,90.9192276   71.1222916,91.4969788 70.5364685,91.9710007 70.3367767,91.7606277 70.1316223,91.5448227 69.8947296,91.2892151   69.8947296,91.2866058 69.538002,91.4517441 69.0613708,91.3903732 68.6248169,90.8232651 68.6219406,90.8206558   68.3663559,90.6290283 67.7326889,90.1630783 66.9206619,90.4613113 66.9206619,90.4639206 66.6411362,91.0362167   66.697052,91.7312622 66.4547043,92.0773392 66.4547043,92.0828018 66.4359818,92.4954453 65.8982773,92.6418381   65.4882126,92.487381 65.3017807,92.1173859 64.7133789,92.0346909 64.7133789,92.0375671 64.6096115,92.521965   63.2754745,92.4262772 61.6539879,91.7499771 60.2428703,91.6433716 59.8089027,91.6061707 58.8928642,92.1545563   58.8928642,92.1571655 58.7173462,92.5513382 58.048851,93.0705948 57.7667236,93.6748886 57.9664154,94.6759415   58.0142632,94.9237518 57.8332863,95.328331 57.5563812,95.9461288 56.9679489,95.7490463 56.5925026,94.7851639   56.5898895,94.7825546 56.3395004,94.5589523 54.8139725,93.706871 54.0656281,93.6270447 53.5731583,93.7042618   53.5731583,93.706871 52.7372131,94.9689865 51.7520027,95.4268723 50.7881203,95.8129959 49.3450012,95.7277145   49.3450012,95.7305908 48.8842697,96.3855591 48.7537231,97.1495056 48.7220116,97.3333359 48.0509071,96.6091919   47.8805809,95.8501968 47.8805809,95.8475876 46.706356,95.1738739 46.1712303,94.867836 46.559967,94.6174469   46.7037468,94.604187 47.0685463,94.5456924 47.6621704,93.8878479 48.2108231,93.4406128 48.2108231,93.4380035   48.2079468,93.4034119 48.1759682,93.0225067 48.1733589,93.0198975 47.5849571,92.2505188 47.5849571,92.2479095   46.6132736,91.6113892 47.3506775,90.0965118 47.3506775,90.0936661 46.386795,89.8515854 45.7689934,87.7693634   45.8836441,87.1809311 45.8836441,87.1783524 43.2983055,84.8243866 43.1438484,84.6860657 42.4542923,84.3665009   41.9137077,84.1189651 41.4636002,84.132225 40.7420654,83.3628464 40.7420654,83.3599701 40.1723557,83.6369019   40.1723557,83.6397552 40.2521782,84.4198074 38.9128456,84.7099762 38.4096985,85.1148529 38.4096985,85.1174316   38.2872505,85.44767 37.808033,83.9538574 37.9809418,83.0991669 38.6626968,82.0341339 38.6626968,82.0315552   39.3548622,81.3019257 39.3522835,81.2993393 38.5560875,80.0078278 38.239399,79.6510696 37.7653809,79.1105118   37.7653809,79.1079025 36.3969193,78.157547 35.3477287,77.1322937 34.7008018,76.8873672 33.8193512,77.7607422   32.5972557,77.5901794 32.02211,77.7368317 31.6999378,77.6169662 31.4284878,76.967186 31.4258785,76.967186   31.4258785,76.9645767 30.9784031,76.9752274 30.6616898,77.1801453 29.6312447,76.9458618 28.8004913,77.0951004   28.5394249,76.9086685 28.651228,76.251091 28.6327763,76.0859833 28.5662117,75.4655762 28.1613655,74.5601883   28.1613655,74.5576019 27.7755032,74.5682526 27.3441391,75.3618393 27.0856552,75.23909 26.9499435,74.9169464   26.9473343,74.9169464 26.9473343,74.9143372 26.1805382,74.9996185 25.9808445,74.6800613 26.1431007,73.4314651   24.1383629,70.2761459 24.1355152,70.2735367 23.680212,69.9565811 22.9773998,70.2363663 22.4927006,70.2043915   22.2717075,70.1908646 22.0642128,69.6105042 21.7950783,69.2243729 21.7950783,69.2217636 21.1588268,69.4347153   20.6395702,69.3177261 19.5347595,68.7584229 18.6186981,68.1302109 17.9850597,66.9692459 17.8092728,66.6444626   17.3459301,66.1998367 17.3433208,66.196991 16.5684566,66.024086 " />
</svg>