<svg xmlns="http://www.w3.org/2000/svg" xmlns:xlink="http://www.w3.org/1999/xlink" version="1.0" x="0px" y="0px" viewBox="0 0 100 125" enable-background="new 0 0 100 100" xml:space="preserve">
    <polygon points="21.0353374,79.9786377 22.0172443,78.8520889 22.1938629,78.3305206 22.2141075,77.8728714 20.5400944,74.1744232   20.4618931,73.7456207 20.5024719,72.6450806 20.2678413,71.4837112 20.1520176,69.5575485 19.995615,68.7322159   19.7436066,68.3962173 18.9065132,68.4570084 18.8689194,68.3642349 18.8891354,67.5997238 18.6168823,65.123436   18.6168823,63.8084755 18.4026413,61.9142876 18.6342907,61.239418 18.9267597,60.6282082 18.9471207,60.202507   18.518465,59.6812248 18.4199047,59.6812248 18.052187,59.1916351 18.01161,58.8558922 18.2084732,58.6443443   18.3446598,58.2158356 18.3446598,57.9086533 18.1476498,57.4510078 17.4091492,56.6864967 16.7690907,56.3504639   16.5170536,55.8000488 16.534462,55.2787704 17.0587234,54.8819466 17.5279541,54.6678505 18.5560913,53.8422279   18.712492,53.4773483 18.7704735,53.1993294 18.4199047,52.1624222 18.2838364,50.8446541 18.3446598,50.2334175   18.8486748,48.921299 18.9065132,48.5824585 18.8283138,48.3711739 18.1882591,47.8498955 17.1369228,47.5138931   16.6126633,47.4530678 15.3295355,48.7968712 15.0949335,48.7968712 14.0059786,48.2176094 13.1718664,47.6355095   12.4130049,46.9634781 11.8279486,46.6274452 11.2254848,46.474144 11.208107,46.109005 12.0625772,45.3444633   12.3348045,44.9448318 13.1892738,44.3335915 13.5599461,44.2439232 14.4548473,43.7834663 15.4077644,43.4791222   16.0101986,43.4474373 16.2824516,43.3258209 16.8066845,42.3177567 17.041317,42.010891 17.5655785,42.0425491   18.2838364,41.8892746 18.7906933,41.6140671 19.0253201,41.0927887 19.0427284,40.2383194 19.2367516,39.9631081   19.5871792,40.0239029 20.1142769,40.39188 20.3460693,40.39188 20.9107647,40.1455193 21.7276134,40.2671661   22.1532841,40.4527016 23.0105934,40.4815483 23.2828178,40.2671661 24.351675,38.2513275 24.5457287,38.0369453   25.1307831,37.7012024 25.4782543,37.6084328 25.8490696,37.7012024 26.7815971,38.6162071 27.792469,39.1985703   28.8640194,39.227417 30.3411694,38.5553856 30.4976006,38.4049225 32.2266121,38.5553856 32.4409981,38.2513275   32.5193443,37.2724037 32.4033775,36.7831001 32.032589,36.0790939 31.954504,34.2776718 32.206543,33.6664314   32.3830147,32.5022583 32.5569649,32.2878685 33.1418762,32.0446129 33.1998634,31.830225 32.9854774,31.3725796   32.4033775,30.6688614 32.2845955,30.4225006 32.9074211,30.0259666 33.1014442,29.660799 33.5098839,28.3141861   34.0744324,27.3989201 34.1324158,26.8168182 34.0167389,26.6343803 33.703907,26.6024342 33.237484,26.9701214   32.6757736,26.999258 32.3049583,26.8456669 31.3144474,25.8667374 31.1580162,25.6551933 31.1204224,25.4699154   31.2160015,25.3801308 31.7805519,25.3482971 31.8385353,25.0442448 31.6648731,24.4301968 32.206543,23.2716694   32.713398,21.9567108 32.7710915,21.4672661 32.3629417,20.0915146 32.4033775,19.0198212 32.0905762,18.9908295   30.9639931,19.5412445 30.3615303,19.6309147 30.2427521,19.3558521 30.2051296,18.8692131 30.4772091,17.9511051   31.4100552,16.604351 31.7401218,15.7788687 31.8181744,15.0461626 31.4332256,13.9194345 31.4448395,13.9136419   31.6648731,13.6704121 31.6821346,12.9983797 31.6241493,12.0512562 31.8385353,11.8370152 33.744339,11.1649828   34.230835,11.1939754 34.7928391,11.5009851 37.1271515,11.5618076 37.9816208,11.2229643 37.9816208,10.8580894   37.1851349,9.9109945 37.1070786,9.7256012 37.1271515,8.9927464 37.3011017,7.8922009 37.5559502,7.2491641 37.8659439,6.9132781   38.3148155,6.8234601 39.3053246,7.2811103 39.9858437,7.6779346 40.3362961,7.9848285 40.5682335,8.0138206 40.7447052,7.7705879   40.8807755,7.3419333 41.4051552,6.7916622 41.7352486,6.5772476 42.1436577,6.4556279 42.4737511,6.5164509 43.0009651,7.0059023   43.2529755,7.6489425 43.3109589,8.6568604 43.7193985,8.6886873 45.1384163,7.7995801 45.5671883,7.8603735 46.2072754,8.8103075   46.5201073,8.7784739 46.6157112,8.5960665 46.656147,7.7387571 46.7517509,7.4027233 47.2382469,7.0348911 47.6670189,6.9132781   49.4568558,6.9451056 50.5834351,6.3021846 51.7102737,5.8445668 53.8881607,5.3839364 53.9866066,5.323143 54.0069656,4.7120457   54.064949,4.5586023 54.3370285,4.497664 55.6203003,4.5296102 56.1647797,4.3152251 56.5932884,3.9184008 56.9236412,3.3073072   57.4276581,2.7860281 57.6997681,2.6324365 57.9721375,2.6035893 58.0705833,2.5108202 58.615036,2.5716429 59.4695053,3.0610914   60.1500244,3.2464845 60.2659912,4.8974423 60.0139847,5.6301522 60.0544434,5.9371877 61.2189102,6.6380706 61.2389793,7.4635458   61.3953819,7.7995801 61.7257652,8.0456505 62.835083,8.5960665 63.2171936,8.9927464 63.553196,9.5720091 63.825592,10.7971506   64.2916946,11.529974 64.526474,12.6913414 64.836174,13.2735882 64.9926071,13.7630329 64.9349136,14.0670919   63.7299843,15.4428415 63.4751396,15.8714962 63.5156021,16.1467018 63.6315689,16.3001518 64.0976715,16.2683201   64.1961212,16.1785049 65.7110138,15.8396654 67.2084045,15.3212252 67.5008469,15.4139948 67.7152634,15.9642658   67.9876251,17.0039845 68.2772598,17.5832481 68.8217392,18.1654949 69.5022583,18.1943417 70.0467377,17.9511051   70.4956055,17.5832481 70.9040146,17.461628 71.3124542,17.5514469 71.448494,17.6759014 71.3908005,17.8902836   71.0199814,18.2551651 70.5911865,18.4087238 70.2611237,18.7765884 70.3015518,19.1125889 70.6899185,19.6628609   71.2920914,19.9669151 72.2249069,20.1205082 72.4013824,20.3057556 72.2249069,21.2818699 72.6737823,22.2319221   72.9458618,22.4751835 73.2762451,22.5069847 73.8987732,21.7104988 74.6751633,21.1602249 75.0256195,21.2210464   76.2506104,23.9117241 77.417923,25.4699154 77.4962616,26.0203323 77.417923,26.6343803 77.2034988,27.4885616   76.9690475,27.9781837 77.6323013,28.9251347 77.8843079,29.4147243 79.1093063,29.6899357 79.5381088,29.5363693   79.8478088,29.5971661 80.5690536,30.1792679 81.249855,30.2400608 81.209137,30.7904739 80.722641,31.9229946   80.8790741,32.4414368 81.7335434,32.9307671 82.0839691,33.2667694 82.3560791,33.3275909 83.6797791,32.4123001   85.7796097,31.1873302 86.2081223,31.2481251 86.7324982,31.9229946 87.0829544,31.9229946 87.3929443,31.7086067   87.6274338,31.3117561 87.8214569,31.3408928 88.5599594,31.7694035 88.5398865,32.3515053 88.791893,33.6027985   88.7743454,34.1532173 87.8214569,35.0105247 87.6274338,35.4361954 87.8010941,35.7430611 88.1138916,35.8358574   88.1894302,35.9574776 88.59758,36.0502434 88.6962891,36.2934761 88.6759262,36.629509 87.8590775,37.3651733   87.7634659,37.3651733 87.2973328,37.7300491 86.2081223,38.2804642 85.5448303,38.4337692 85.2727509,38.6162071   85.1771469,38.8305931 85.0990906,39.412693 85.1771469,39.5953941 85.5448303,39.6879005 86.2661057,39.1057968   86.7324982,38.9522095 88.229866,39.013031 88.4035263,39.29105 88.6555634,42.0716858 88.5599594,42.3785782   88.3458328,42.6537857 87.4710007,43.0214729 85.7796097,44.1511536 84.8846741,45.2200394 83.7377625,46.259758   82.9209213,46.5058289 82.202774,47.1170692 81.8695831,47.145916 81.2671204,46.7490616 80.7430038,46.5349655   80.3345947,46.65942 79.555336,47.2386856 79.1672974,47.3922768 79.1093063,47.5455475 79.2832565,47.8498955   79.3236923,48.2784042 78.6431732,48.7968712 78.0984344,49.0748901 77.5338821,49.0748901 77.3599319,48.9821205   76.7373962,48.921299 76.4070129,49.1328735 76.3086014,49.1037369 75.7264938,49.8077469 75.6685104,50.1437759   75.7468567,50.2970505 76.1550064,50.3870087 76.7170105,50.2045708 77.1254425,50.2045708 77.7279053,51.5195274   77.7279053,52.3128853 78.3128204,52.4056549 78.4867706,53.4454002 78.8372269,53.903019 79.732132,55.4323616   80.5286179,56.440136 80.7630997,56.9933891 80.7430038,57.5726509 80.3546677,58.0910912 79.8277359,58.4299316   79.150032,58.6123734 78.6632767,58.9484024 78.4664078,59.3771744 79.6914062,60.5385361 79.8101883,60.9961853   79.7901154,61.303051 79.6857376,61.465416 79.4973526,61.7606964 77.3194733,61.6999016 76.38694,62.4038811   75.3556824,62.8612366 74.7736053,62.8903732 74.2087708,62.6787987 72.439003,62.5543709 72.0713196,62.6787987   71.2140121,63.2580643 70.9040146,63.2900352 70.3799286,63.1364479 69.7369995,62.7687569 68.9781418,62.6471443   66.8203278,63.4436302 66.0818253,63.4116554 65.8674393,63.1364479 65.7110138,62.4647026 65.7313995,61.0281296   65.4966202,60.9353638 65.1490097,61.4246941 64.9145203,62.8004456 64.74086,64.7874069 64.4481277,65.4302979   64.6800613,66.3484344 64.0020676,67.2956696 62.7742577,68.4570084 62.2326202,68.7610626 61.2969627,69.0970917   61.1029396,69.3434525 61.0073318,69.3434525 60.9089203,69.8935776 60.6365166,70.2296066 59.4319115,70.1687851   59.2955513,70.3512268 59.2754822,70.5656128 59.5679512,71.0549469 60.2659912,71.6053619 60.7148666,72.0949554   60.9089203,73.0130539 61.2969627,73.4098816 61.5894356,73.8992157 61.6881409,75.1213684 61.8038177,75.4893494   62.2906036,76.0078201 63.2231293,76.1005859 63.318737,76.0078201 63.5735855,76.0394745 64.349678,75.6398163   65.2245407,75.4574051 66.3915253,76.8331528 67.9876251,78.055603 68.1440277,78.3913116 68.1236649,80.3174744   68.4161377,80.8995819 69.0765839,81.6932297 69.1922607,82.0928879 68.9982071,82.2753296 66.8203278,82.9154129   66.2382507,83.3150482 65.7313995,83.9551392 65.0881805,84.5055466 64.6800613,84.6908035 64.4076691,84.9343491   64.349678,85.5164261 64.7204971,85.9740677 64.836174,86.2809677 64.1180344,87.0138168 63.4751396,87.2890244   62.6786499,87.4106445 62.5423203,87.6567154 62.6582947,88.2359772 62.4642677,88.543129 62.0962906,88.9080124   61.0248833,89.0932541 60.4804077,89.6117249 60.0343437,90.86586 59.9936218,91.6303711 60.170414,92.7312012   60.0719681,92.9136429 59.683918,93.2205048 59.5851822,93.617363 58.7886963,94.4746399 58.108181,95.4218826   58.0677452,95.6303558 57.8937912,95.5259781 57.0684586,96.0472565 57.0684586,96.0503845 57.010479,96.5456238   55.3507423,97.1653442 54.3749428,97.3333359 53.5292473,97.2173691 52.251915,96.4672775 51.970768,96.4760513   51.970768,96.4788666 51.7074356,97.0553207 50.8645782,96.8641052 50.7805557,96.4412689 51.0526657,96.1487961   51.5682983,94.4978409 52.1795082,93.9069901 52.2403297,93.5508881 52.2372017,93.54776 51.7159233,92.2851715   51.7566719,91.285881 51.7566719,91.2830429 50.8385429,90.9586334 50.8385429,90.9555054 50.5081863,89.1832199   50.5690117,88.8964233 51.0586052,88.815239 51.1714439,88.4995728 51.4466553,87.7234726 51.7190514,86.9586411   51.7190514,86.9558334 51.9042969,86.4373627 52.7095604,85.1340256 52.8340149,84.5576019 52.5067596,82.8574295   52.2719879,82.0813065 51.487114,81.533989 51.2410431,81.2211838 51.0498276,80.9779282 50.453331,79.712204   49.8073082,79.2313614 49.1035919,79.2517471 47.2673836,78.7853241 46.8413925,78.6781387 46.2564812,77.9107819   46.5633774,76.337883 46.5633774,76.3350449 46.8298073,75.7586212 47.5946083,75.5937347 47.5974503,75.5937347   48.0058861,74.5684052 48.2491226,73.9600067 48.2491226,73.9571991 48.3186874,73.7920227 48.1563492,73.0854645   48.3503761,72.5090408 47.9826889,71.9501343 48.3679276,70.5828705 49.7349014,69.2622681 49.7204781,68.6946182   49.7176399,68.6917801 48.6284218,67.7965927 48.8428078,67.506958 48.6923409,66.5223846 48.6691437,66.374733   49.6508789,66.2036133 49.9116631,65.4826355 49.8913002,64.7729797 50.1577339,64.2633133 50.1549225,64.2601852   49.8593559,63.7012863 49.9840698,62.985981 51.1742821,62.8815994 51.3598213,63.2524147 51.6986885,63.9329338   51.9767075,63.785305 52.0231056,62.9279976 52.0199776,62.9251595 51.7303467,62.5803833 51.9071388,61.2221832   51.8027534,60.0837288 52.5647469,59.481266 52.8628616,59.2439728 53.665287,58.6095352 53.6624489,58.6067238   52.5820122,57.7146263 52.567585,57.2134209 52.3475227,56.8629951 52.3443947,56.860157 51.012207,57.0397606   49.4452667,56.5184784 49.0716133,56.0752563 48.5823097,55.4872475 48.5791817,55.4844093 48.1478653,55.6292229   48.0231209,56.1332397 48.0231209,56.1360779 47.4846077,57.0049744 46.8561058,57.1642151 46.8530083,57.1642151   46.5633774,57.3582382 44.7299805,58.6007881 44.4318619,58.8007469 43.8989983,59.8172989 43.8989983,59.8201065   43.7858391,60.7469864 43.3862076,61.5406609 42.9721184,61.9114494 42.1988297,61.9346504 40.2610512,63.0640373   40.2610512,63.0671654 39.977356,63.5536613 39.4357185,64.483345 39.1228867,65.0190506 39.0012703,65.6650772   39.0012703,65.6679077 38.5348778,66.5368042 38.6072845,66.9480591 38.6217079,67.0320511 38.6217079,67.0348892   39.893364,67.2088394 40.0554428,67.9153671 39.6238022,69.9919968 38.9752617,71.7937393 38.8852997,73.3635101   38.8852997,73.3663177 38.5521088,74.0151825 37.0810394,74.20327 36.6695023,74.5016785 36.4002342,74.5712433   36.0410309,74.6668549 34.6392746,74.7825317 34.1615562,75.2229156 32.0557594,75.2924881 31.2216797,75.6050262   31.2216797,75.6081543 30.6279907,76.8331528 29.7938805,77.1487961 28.9509964,77.1055222 28.4643574,77.2647629   28.4643574,77.267601 28.128355,77.8324356 27.7316761,78.4985352 26.6367817,79.4630051 24.8845673,79.5905914   24.5399055,79.7294693 24.536953,79.7294693 22.8745251,80.3726501 21.9708481,80.5491257 21.6058521,80.1350708   21.6030159,80.1350708 21.6030159,80.1322327 " />
</svg>