<svg enable-background="new 0 0 100 100" version="1.0" viewBox="0 0 100 100" x="0px" xml:space="preserve"
     xmlns="http://www.w3.org/2000/svg" y="0px">
    <polygon
            points="5.7040205,40.6367073 5.3964157,40.4164124 4.6894813,40.4164124 7.7955518,39.3645401 8.9970741,38.0006447   10.6145573,37.8260117 11.620739,38.6159859 12.3483801,40.6783295 15.8369837,41.5142021 19.2423,43.7967911   20.5270634,42.3041687 23.7661057,43.0068169 25.2173138,42.1711578 25.8576775,39.3645401 27.4751606,39.534893   28.061306,38.9237976 28.3441296,38.0463066 27.4502125,38.2667999 28.0363178,36.7282791 28.8429585,37.0360489   30.3524189,39.8883553 30.9385643,39.8467369 32.1942635,39.2313614 32.1112328,37.4309311 36.9385681,36.5953064   40.260849,34.0505943 42.5227737,34.229435 44.67239,33.3062859 45.0341759,33.9632797 44.0570145,35.8509865   46.1233902,37.5182457 47.2418785,37.5641518 47.7159271,35.7180214 51.038002,35.1940308 53.5786781,32.3833466   54.59338,32.2211456 54.8885956,35.4559059 58.9673767,35.1067162 59.9694824,34.0089798 58.5763206,31.4185791   58.6015167,30.1878262 59.2999268,29.1359482 59.1045914,26.9404678 63.990181,27.9508858 65.8612595,27.160923   66.3643646,27.7762985 68.3726959,25.8885899 70.1024399,25.6680946 74.0399399,27.4685268 75.5491867,29.9716129   77.8360596,30.5829144 78.5056534,32.2085457 82.8048935,32.2501678 84.5346832,30.9820766 85.3455658,32.0755692   85.3743744,34.2710571 87.0209274,35.3686295 89.6447983,34.2710571 91.740448,31.6390743 94.6136322,32.2085457 97,34.8781166   96.9878159,34.8864326 96.792099,36.7282791 96.0104523,37.2979546 94.7549591,37.6930466 94.3638992,38.2211075   94.4471512,38.6159859 94.8089676,39.2313614 95.3952789,39.713768 96.4847031,41.0734177 96.6507721,41.8217659   96.1769333,42.5660362 95.8443832,42.8279457 95.3120422,43.0068169 94.5011597,43.7967911 94.4471512,45.6388435   94.6964569,46.9984932 95.0875092,47.2603951 95.0623169,47.7011375 94.168602,48.844574 93.831604,49.8091812   93.678093,51.6095734 93.636261,51.6095734 92.6593094,51.3434219 91.4326401,50.64077 90.6510239,50.5534554   90.5096893,50.6866341 90.1186829,50.7280464 89.7280426,50.9485435 89.0044708,51.6968918 88.53022,52.5741768   87.9150467,53.143856 87.1334,53.4516258 85.2911377,53.4057655 84.9005356,53.493248 84.8172989,53.7135315 84.788063,54.5908203   84.6467361,54.6780968 81.5201645,55.3393784 79.9024734,55.9963341 78.2851562,56.9193115 75.7156754,56.8736191   75.1001282,57.0482063 74.4017181,57.5762672 74.264473,58.0586739 74.2064209,59.2894287 74.0691681,59.5512924   73.6200638,59.5969925 72.7011566,58.2332687 72.0856171,58.1459923 70.0484695,59.4223938 69.4621201,59.3767052   69.3788834,57.9297371 69.0170898,57.006588 68.2602234,56.3039322 67.7863388,56.2166176 67.2000275,56.3912125   66.7261505,56.699028 65.9733505,57.4889946 65.7780075,58.1043701 65.5246658,58.4535561 65.1916962,58.4119339   64.6885834,57.9713593 63.7116356,57.4016762 62.2896576,56.7446747 61.6452599,56.8736191 61.2002335,57.3558159   60.8343773,58.2789574 60.5846519,59.858902 60.5558357,60.9109879 60.6678925,61.1771355 61.8113289,62.5367851   61.8113289,63.0606003 60.5846519,63.5470428 57.2335129,63.4597244 56.4267044,63.0189819 55.7282906,62.9773598   52.992321,63.942131 52.6845512,64.2496948 52.7677917,65.6093826 52.7430115,66.5741501 52.4271317,66.9233322   52.4104576,66.9316483 52.4060097,66.9233322 51.9321289,67.0106506 49.5287514,68.1083908 48.4685593,68.4160004   48.3562508,68.5491791 47.7699394,68.6364517 47.5206261,68.8110886 46.5434685,69.07724 45.400032,69.2518311   45.204525,69.1186523 44.8386726,68.0211182 42.4104691,67.9337997 41.9946747,68.2413635 41.6869011,68.8110886   41.1837921,68.7237701 40.9884911,68.3286819 41.3500671,67.3641205 41.4333115,66.7071228 41.5746384,66.4409714   42.1609535,65.87146 42.3022766,65.343399 42.0196609,64.8194122 41.4333115,64.5118103 39.0051498,64.46595 38.2525215,64.0294495   36.5767822,63.8964348 35.9073982,63.1062584 34.7639618,63.1521606 32.30653,63.6343575 31.6371861,63.8964348   30.8845539,63.942131 30.1029034,64.3329315 29.2629986,65.1271896 28.4271641,66.5282516 27.4502125,66.6198044   27.2837296,66.353653 28.0072975,63.5013428 27.8950329,62.5367851 27.4502125,62.4036064 26.1944714,62.4036064   25.6081619,62.6697502 24.9095402,62.6241035 23.1217079,59.8132057 22.2028027,58.7154655 21.2256393,58.8070183   20.4149647,58.7154655 19.8286533,58.2332687 19.7370949,57.7301979 19.5791378,55.6885567 19.2963104,54.9442825   18.6852169,54.5035057 18.0406113,54.2415924 15.3338718,54.1086235 14.9430637,53.8881302 14.5522175,53.0108833   14.7475576,51.7842064 14.6935482,50.2458916 13.936882,49.3227005 12.6811409,48.2708664 12.1238508,48.2292442   11.7039833,48.7116089 11.2881889,49.6305161 9.4420986,51.4307404 8.8307972,52.6157951 8.3569164,52.8362503   6.7644219,52.7030716 6.3735752,52.5741768 5.1718864,52.6616592 4.2529802,51.0815125 3.6666698,49.7218666 3.7499099,49.4143028   4.3610034,48.8862 4.390234,47.834156 4.0574732,47.0441818 4.306994,44.0586967 4.1947293,42.6990509 3.9992204,42.0836716   4.2237496,41.8633804 5.5626941,41.5142021 5.8412328,41.2063866 "/>
</svg>
