<svg xmlns="http://www.w3.org/2000/svg" version="1.0" x="0px" y="0px" viewBox="0 0 100 100"
     enable-background="new 0 0 100 100" xml:space="preserve"><polygon points="39.8521538,24.1893082 39.9209251,23.6826191 39.146286,22.3362503 40.2104111,21.9995975 41.1840096,21.3264198   42.9177704,20.124649 45.027916,19.0714931 49.7694511,15.9044619 52.3030777,13.6640501 55.7813454,11.8903675   56.6934509,11.5428991 58.3982201,10.9022532 61.1707649,9.8598843 61.8186874,9.4509134 62.2311592,8.1406384   62.8900108,7.5144706 63.34972,7.4855151 62.5713882,9.1902466 63.0202751,9.1107273 63.7369308,8.1298523 64.4390717,8.1804161   64.5657883,9.0057631 65.1666946,8.7450523 65.7673798,8.024888 66.6867599,8.024888 67.1319351,8.024888 68.5001984,7.6809664   70.2374649,6.6241121 73.6506882,5.5997739 76.2205353,4.8324113 77.2086487,4.1557164 77.9035492,4 78.4392319,6.6603494   79.1268921,7.9054022 79.4128342,8.8862772 79.1776047,9.9358931 77.2991333,11.7311106 77.7370911,12.5382519   78.3017273,13.5735636 78.2147903,13.8160315 77.7803802,13.7400227 77.5053711,13.9897652 77.4801102,14.4167538   78.7974472,16.0347195 78.8481979,16.0999489 80.1367264,20.5265179 80.5022202,22.4012928 80.4516907,22.8574543   80.3792267,23.0854378 79.7965317,23.469101 78.5079651,24.0807896 78.3632202,24.6164417 78.9711838,26.5276279   78.9929352,27.6350384 78.8229294,27.9789543 78.3125153,28.3988533 77.8998566,28.5110931 77.1217117,29.1227474   77.1724167,29.5064468 77.3896255,29.6221905 78.5079651,29.2023029 79.1413727,29.3145065 79.5286179,30.0781765   80.1620255,31.6816654 81.352829,33.136692 81.3275681,33.3249016 81.2768173,33.5963631 80.9873352,34.0523491   80.5494156,35.771595 79.8217926,37.4908409 79.0436478,38.1026764 78.8481979,38.4826393 78.7251663,39.134079   77.9723206,39.8219223 76.3218079,40.7013435 75.2034683,41.3890038 75.1961899,41.5012093 75.1779861,41.7691574   75.4204865,42.112896 77.0746918,43.4884033 78.2400513,43.6801605 79.260849,44.5199852 80.1837387,45.6673203   81.7402191,46.4707336 82.6378479,47.5783234 83.0286026,47.7665367 83.7561874,47.8824692 84.1941452,48.1104584   84.8275528,48.8378983 84.7045593,49.2975693 84.5090714,49.5255623 83.5389862,49.6777229 83.0758057,49.9852333   83.0758057,50.4051247 83.4667053,51.2050285 84.7298279,53.1559486 85.2402039,54.9512062 85.2147598,55.7148819   84.8745651,56.0985451 83.9262314,56.5944405 83.2712555,57.2821083 83.2712555,58.2377205 83.4159927,58.7336235   84.2194061,59.2693024 84.1471252,59.6130447 83.9262314,59.9171867 82.5436325,60.9485893 82.3229141,61.2925072   82.2974701,61.7124443 82.6378479,62.0561829 84.1688843,62.0961075 84.6067963,61.943943 85.044754,61.980175 85.60215,62.3638687   85.9930878,62.8597755 85.9930878,63.2035179 85.7504425,63.4714241 85.1170349,63.5474319 85.01931,63.3954582   84.1216812,63.3954582 83.9516754,63.5474319 84.1688843,64.007103 84.7768402,64.2350998 85.5079727,64.8070068   85.5549927,65.0749283 85.2619629,65.3064651 84.4873581,65.2269058 83.9733963,64.5392456 83.3435364,64.463089   83.0286026,64.8070068 83.1010666,65.3064651 83.2965164,65.7263489 83.3689804,66.2620316 83.1735306,66.7180176   82.8838654,67.0619354 82.4893799,67.2791443 82.3481827,68.2454987 82.395195,68.9331665 82.6160965,69.2408524   83.1480865,69.3566055 83.6114502,69.2770844 84.559639,68.4012146 84.97229,68.2852478 86.1123886,68.8969345   86.4780655,69.2010803 86.7457962,69.3928375 87.0607224,70.7283859 87.1114731,71.9519043 86.0908203,72.5236359   85.8481674,72.947258 85.7976379,73.5950012 86.2861252,74.9342728 86.5757904,75.2781982 87.0390091,75.3142471   87.668869,74.8582611 88.0090637,75.0464706 88.8125076,76.537735 89.9780502,77.9528351 90.22052,78.5247498 89.4930801,79.21241   89.4206161,79.5925598 90.2459641,80.3561935 91.0711288,81.7352448 90.9986649,82.6111221 91.0204163,83.6824875   89.7355804,84.2181625 89.3953552,84.4823532 88.4940338,85.5139313 87.9620819,86.2813339 86.242836,87.6893387   86.2500763,87.696579 85.2402039,88.6122284 82.7101288,90.443718 82.2974701,90.635437 81.2551041,90.8273773   80.8896103,91.0951462 80.4044952,91.9349747 80.2344894,92.3946457 79.916008,92.7383881 78.1423264,93.3465271   77.6356354,94.1536713 77.5089188,94.7218475 77.1976852,94.8377838 76.3688278,94.6096115 74.5953217,93.6939545   74.3781204,93.4622803 74.3275528,93.2705154 73.8931656,91.2471313 73.187294,89.9080353 72.6046143,89.2998962   71.9712067,89.0321579 71.1930542,89.1081314 71.0735855,89.2203751 70.2447128,89.3759003 69.0793457,89.2998962   67.6713257,88.8764496 66.7229919,88.3805466 66.1148453,87.7326279 65.3621445,87.1969452 64.9712067,87.081192   63.6861839,88.3045425 62.6403046,88.8764496 61.8874207,89.0321579 60.3056793,88.5579758 60.3021317,88.5652161   60.2876511,88.554245 60.2804146,88.5470047 58.7999077,85.8651276 58.8434143,84.9675064 57.8227615,84.3051071   57.2471581,84.4570847 56.5305023,84.6452942 55.5569038,84.898735 55.2601814,84.9782867 53.2984314,86.6830215   52.965477,86.7012253 52.4985657,86.7228012 51.0977974,86.2125626 50.5801392,86.024353 50.0191956,86.1148376   49.7839661,86.1546097 48.2419662,87.0304871 48.2202492,87.0414581 48.0067368,87.0559311 48.0357285,86.9292145   47.9887123,86.5852966 48.0609932,85.5537109 47.1126556,85.057991 46.7001839,83.8744278 46.649437,83.378479   47.0149307,82.7631073 47.0873909,82.2673798 46.9679146,82.1514511 45.9690132,81.7352448 45.4116173,81.6954727   44.0505905,82.5748901 42.3748512,82.8790741 41.7414436,83.2228088 41.2564697,83.2987823 40.8185501,83.5304947   40.6953468,83.8744278 41.3794975,84.6742935 42.3023872,85.3257217 42.4473114,86.049614 42.1540985,86.3935318   41.2310257,86.4333115 39.2403221,87.6168747 39.0703125,87.6168747 38.9725876,87.8448715 38.9472885,88.4204712   38.5598984,88.7642136 36.8081474,89.1081314 36.2507133,88.9922028 35.4978676,88.3045425 34.6219559,88.6882324   34.2817612,88.5362167 33.894371,87.9608002 33.3586922,87.9608002 32.5552788,88.3805466 32.2656136,88.9161911   32.2656136,89.6040344 32.5335236,90.175766 32.7037125,90.8273773 32.2403488,91.4390717 32.4105339,91.9747086   33.6990662,93.5382843 33.9885483,94.2259521 33.9920959,95.5 33.4166756,94.7761078 32.8882332,93.7337341 32.1715775,93.3030548   30.3618469,94.2188568 29.5654907,94.3309097 27.6870251,93.1401062 27.0428333,91.7900467 27.0645866,90.4654312   26.6626816,89.5423584 25.1171684,88.9706268 25.3308258,88.2973022 24.8819408,86.9979477 23.8975544,85.7636795   22.4532795,84.8045502 22.21805,83.9684219 21.6498661,83.400238 21.5339355,83.0925446 21.7149086,81.8547287   21.4941578,81.297287 21.2082195,81.0838165 20.8679905,80.8303757 19.8509197,80.6674347 18.5333633,80.870163   17.9869328,80.6783981 17.5815163,80.1172791 17.4367733,79.9219666 16.9155712,79.6287918 16.6223946,79.4658356   16.6223946,79.4695358 16.2531719,79.9507828 15.7682371,80.5879135 15.3736067,80.7978821 13.7268229,80.700119   13.2851391,78.5862427 12.5540075,77.3991241 12.1703444,76.2228012 11.8988838,75.9548874 10.7587891,75.9296188   11.7723475,73.8231354 11.5116377,72.5780716 11.9098148,71.7997437 11.5226049,71.1627884 11.7541418,69.19384   11.2836838,68.2562866 11.0954351,67.123436 10.1725445,67.0511551 9.7308969,66.569725 10.433073,65.8131485   12.2935143,63.8081131 12.4454956,63.1999664 13.1766281,62.1793518 12.5902386,60.2934685 12.0328407,59.5008049   11.8663454,59.2655754 11.3994341,57.807003 11.5081272,56.9527016 11.2944336,56.5547066 9.4196959,55.9718285   8.9092789,55.5954018 8.6595716,55.4181175 8.0406437,53.5649185 8.351881,52.3813553 7.4542542,47.1838341 7.2840667,46.2065125   7.1935802,45.9930305 6.9837961,45.4863472 6.5818906,44.5127449 6.3936782,43.9950867 5.981204,42.7607803 6.5964046,42.4350662   9.5209322,40.9728012 10.0421352,40.712307 11.218461,39.8254623 11.7179108,39.4490089 13.9512653,38.1786842   14.2950058,37.9831963 14.3565006,37.9505119 14.36374,37.9469604 16.9263573,36.6076927 19.6301689,35.4821053   21.6389008,34.0668259 21.769165,33.9763412 23.1264629,33.234417 26.0582657,31.634655 28.6678638,29.9371262   30.0866947,29.0177822 33.9233627,26.5166607 37.2750587,23.8635921 37.2786064,23.8635921 37.6188011,23.5921326   38.1256714,22.8609638 38.7806473,23.1034679 38.8023643,23.1107082 38.8133316,23.1361523 39.0305367,23.7297802   39.4575233,23.9685574 "/>
    </svg>
